<mxfile host="app.diagrams.net" modified="2020-07-24T07:24:12.672Z" agent="5.0 (Macintosh; Intel Mac OS X 10_15_5) AppleWebKit/537.36 (KHTML, like Gecko) Chrome/84.0.4147.89 Safari/537.36" etag="cTSuTYNoDOg_4f5jEpY8" version="13.5.1" type="github">
  <diagram id="8HkhbJs6HYGqOocs-tbi" name="Page-1">
    <mxGraphModel dx="946" dy="541" grid="1" gridSize="10" guides="1" tooltips="1" connect="1" arrows="1" fold="1" page="1" pageScale="1" pageWidth="827" pageHeight="1169" math="0" shadow="0">
      <root>
        <mxCell id="0" />
        <mxCell id="1" parent="0" />
        <mxCell id="czvogAlFN6EcyVGkG60g-2" value="" style="shape=image;imageAspect=0;aspect=fixed;verticalLabelPosition=bottom;verticalAlign=top;image=data:image/png,iVBORw0KGgoAAAANSUhEUgAAA6MAAAPwCAYAAADEfKhFAACAAElEQVR42uzdCbClZ33feaqGmqEmJKEST4WZYaaoGWriyjgZxuXMOFOeKaewDRiHxWBjmxCBAQPdLQmDDSRyEDG2sQ22YiiWAFKzGbUk40ZqJIEFNCBAgAwyCKmFBEhIgEQv6m61pNbKnfs70v/q0av3Pcu9517d5fOt+lZ3n+VdnnNOn/d3/s/yiEcAAAAAAAAAAAAAAAAAAAAAAAAAAAAAAAAAAAAAAAAAAAAAAAAAAAAAAAAAAAAAAAAAAAAAAAAAAAAAAAAAAAAAAAAAAAAAAIAHOL77ZY+//bwdz75tz/btt527/Q23nbd95217tl10+3nb95IkyS3unu1nHj9v+7sX//6aXC/cev62x7p6AgAsm8Uvkice37Pt1NvP3X7Z4pfLAkmS5Azuyw/Yd+7Z8eOuqgAA04XQj+54sgBKkiTn6N7je3b8rKssAEAvt52746fu727jS5MkSc7d4+dtv/COc7c9wVUXAGDEwt7XP3LxC+I0X5IkSXINPH77uTtOdgUGAFs9iJ697dH5ldIXI0mSXFPP3X5OrkNcjQHAFiQTCmRyAV+IJEnyYfLiw7tf8RhXZQCwhciU67efu/0GX4IkSfLhDqQqpACwRVjY+4JH3X7ejkt8+ZEkyXXinsxh4SoNADY5t523facvPZIkua5m2t2z7VRXaQCwiTl+3o4X+cIjSZLr0LtvP+/lP+1qDQA2Ifd1z91+oy87kiS5Tr1Ud10A2IxV0T3bTvUlR5Ik13V33XO3n+CqDQA2EaPZc8/bftiXHEmSXOdeozoKAKqiJEmSa+5t5778aa7eAGCTcPu52y/z5UaSJDeE524/x9UbAGyGIHrBiY/zxUaSJDeQxxfO3vZoV3EAsOGrojtO9qVGkiQ3krd+dMeTXcUBwEYPo+dt3+NLjSRJbqxxo9vf4CoOADY4x8/bcbkvNZIkadwoAGCtK6MHfKmRJMmNZH5MdxUHABs/jPpSI0mSG81rXcUBgDBKkiS51t7tKg4AhFGSJMk111UcAAijJEmSwigAQBglSZLCKABAGCVJkhRGAQDCKEmSFEYBAMIoSZKkMAoAwihJkqQwCgAQRkmSJIVRABBGSZIkhVEAgDBKkiSFUQCAMEqSJCmMAgCEUZIkKYwCAIRRkiRJYRQAhFFfZiRJUhgFAAijJEmSwigACKMkSZLCKABAGCVJkhRGAUAYJUmSFEYBAMIoSZIURgEAwii5gTzy19sW/vadv7lw01kvW5Xtf/09L1r41vtfoq1JUhgFAPgy41r4iT//dwu/8aynjHzbq3913R7nS3/9aQtPetKTFn7pKT+/cP1f/tZct53zzrbjZ9/ygg33Gl5x+ouXXsPL3vWiqZ+XdqznzarPDklhFACEUXJF/u5vPn0piCXopQK5lvs/cM7LFq794G+NPPThl/c+JrfXMcYL/vT5cz2GF/7qU5e2fdorn9P7mDrGeQfheZhjzrE/95lPWTj2kelfv5xP266z6LOzcc17pN7P3z/zpdqEwigAQBjl2ptg9Qs//3MPChl7/uTfrukxvOc/PHeqff+nlz9r9JjnP/upc++qu+v3f33UDk//xV8YdQXue0wd43qrCubHg2f90i+Mju1d/362ynYbRnPueS2m1edn49q+7q844d9oEwqjAABhlGvvzt97IAhWKF3ri9Npw2hVUVfrOFJ9HVdVXK9h9ONvfv7SsSVkLDeU6HorjJLCKABAGOWamQBSQeRPTn72skPNWoXRh9P1Gtqqm/VyQoUwKowKoxRGAQDCKNfcL739hUsXpOneme6p7b+Xs82r3/eSUaUuoTJ/5t99j0s32xqz9pbf+ZWl/f7l63996fZuFTRdiuu+vrGc0wTodr/t+NT29hoz246ray/eMy6zu8923OukLsTZ/rzGn+b5KxlHO48w2p5PvWa57fNvfcHofZA/p32/ZCKmWfefGZBrG5l8qm3/jIccaue6r33f1IzN2Va85G0vHBxDnWNNm+dxe//zCTOPvezuK3+fNF576HwyE/SkY25fp/azvu15T1vX46EpjAIAhFFuQt944i8vXZDWkiZVKZ11IpzMyHvCc57aO9FNZsFN8B3a95DdcYl1bN3Jc3Ix3T2PIU98/i8tPfaqnS/pPZ461mkn98ljEwDq3xnTOu4YEmDqsaf81jPnUlXOeM/lTDw1jzDa/qiRWYkTdPL+Gbfdj7zxeYPvlzw+4XLSfvP6parXfX66m6fKnx8b6vXuO4b2uXmv54eQGnvbmrbN8dbzEnjzGvftN+OahybhaicPSvf4oX3lh6Chz14dc/ZVn7u+Y8l2/voPnzf4Og2pOk5hFAAgjHLVzQXzU5/8c0uVkbo9F8J1YTquotXaVjaHzMVzJglajTB6zht+Y+n2XOSPqyrV4178a784GI6XE0YTHp7z9Ccv3TauwpcAOq9ZgatN3vzbz1lxd815hNH88JAZmYcCTtrpdS97Zm946t427rVMJbC7n74fQeo1mRRG+46pa16rvIcnPS7bHQqT+dz1BeiuCdF922ifm/A8aTttt3dhlMIoAEAY5bowlZ66AE2Ya7s81u2p8kwzC20bKLKt6qqZ8JdAWRMj5c+aqXY53XSHwmi2Vfvohsyhc85+JoXRWbrpdkP5UDfnVC8rROXPSVW0cbbV2ISz9RBG27CfMJkw1FYV3/GaX3lQBTk/eFToyuv9/tf92oPeL32hPm3WvhdSYU2FMO+3mMplWy2fJoxWiEyb1nby91rbtt7fOaaY93W6GOdY8md73HGostsuo5TAWZ+H6tbcVjnTVpOOOe/FtG8+t2m/bK/dR8J4ta9uuhRGAQDCKNeFdbGeC+juGMe6L5XTceMfc/FbFa08dqga2HZL7ZssZdoJjIbCaHzti58xsavuq17w9KVz7l5094XRWScwyvlP6qqboFSP+YPtv7yi17CWuskaqfOYyGZeYXRo2Ze2Gp/3zdAYy7Y6n26/3fsT/Or+nHtfoE8AayvQk8Jo3j99lchsu9sNdihotpXKVFrHfQ6GKp9pk6rmpq26bdQec46rrw2z3faY+97PJjCiMAoAEEb5sJhKzrgxi22317ZqOq4q2hcahsZ1diue8wij7fImfd072+ppQum48bPLDaOxHQfZF87bGYsz6c1yX8O0YQW7tvvzSsJoKrVph0l2j7sNo22X77591TYSKMeNBR0XlNqglerluDaaNoyO61ad9/Y059d2A8/7oHt/W2UdN7a5DbXdz197zOPOva1Ad8eOCqMURgEAwigfNtsL1XRvHBfcxnV7rUrjNN1Ec0Gci97YnWF3HmG07f7ad8xtVapvH/MKo+26rX1ddWvSmvy5nAmHuj8YTKpezxJGp7Vb+WzDaNpxNZcdaWcPThfVlSzH0wa7cTMx5/0yruvsNPtrz2lcoO2G8W5X+eUcc1+lWhilMAoAEEa55rYT7YybgbXt4jhUNart1Myeq73O6Lgw2q06ditPdT4Jb33dOucVRtuw1O2q247Ty7GupM2qytbXHXS5wS9tUz8YjLP7Gi03jOa9mB8xanmUsq0MdoNSO052mnOfdxgd6oI8aX/50adto3bMcde250I3uAqjFEYBAMIoN6ztmMVxgai9eD7tlc9ZdjhbyzDahqK2q247VnFoUqZ5hdFx3T/b7p7julhOsh2bmtdzXmF0HmNGpwmjqeRmsqdJs+H2BaU2ZA29L9djGJ1m5ttpZrcVRimMAgCEUW5Y24pnJlEZGhdYk+OM61K63sJorPUt24pS20V3aJzmPMNoO2tv21W3xjrOuoZr14SweWzn4Qijqfq1S+DkR4K8VpnMqd577TIr48LopGC4nsJo+x4XRimMAgCEUW4527Ggs9o3g2hta5qxe2sVRtuZWGvG3ASdCtVD4W2eYbSdXKi66rZdL1MVXG5b5UeBGnc6afziegujOfb2Ncxr1Z3MalJQmqZivx7DaDsDcI47bTaNl73rRcIohVEAgDDKjW/bVTCBJhfM46wqY8zaheNmNV3JZDzzDKPt5C+ZZbad2GhceJlnGI1tdS/datuJjWptyeXYzho8bkbW9RhGU5We5nHjglLGmI6bCXq9htH2dVvJjxHCKIVRAIAwyg1p1mScNchUAOxbm7PtyjsU4NqJZ3JRHLvbmWcYjZlNt7ohtwFoXAicdxht95sKYC1tM7T+6LTmR4F5Boi1DKPTvs7jglJ+XKiKfCbgmtRNeb2E0bYy3rfsizBKYRQAIIxy09pWlCYtLTHU7bW7fmdb7RmaGKhMMKxQuxrrjA6tf1oX75NC4LzDaNudth0j2bfcy7S2M/WOa6eNEEbHrV/bvq/6glK7pNC4dmjf8w93GO3+GNTX7b0bXrs/2gijFEYBAMIoN6Rv/u3nPKj76rTPSwV16AI7Vam2q24mCprUPbhvOY72/nEX+9OG0e+f+dKHjI2dFAJnCaPTVOS6bT5pmZxZujOn2/FKukU/XGG0DUh53+R16pvFuZ1lt++Hk7bqnMCfrtl9wb19b66HMNqG7JzjUKU+ITo/YMTue3Fex5y2H1qCiBRGAQDCKOdmgksCVFUmM5HRLM+vLqZ9QS3/boNfwmYCRW7PxfdrX/yMpftycd1X7WnDTC7SE05zMd1dtmTaMNp2Z522W/I0YbTW9qxKcI5xXIWvXVc0pvvwSl7HOv+E3Hm9N9Z6AqN2HHLeD5mEKe2Yqnv7Ppt0TO37KpNFpU1qndKMDa73+3oKo+1kWvVZTHslXKcN82f+XZ+nfBYSTFfrmNvXIseV58zyQxUpjAKAMErONOlNLuJnfX4C17iwkYvoSWtG5uI8XQ8njfNs7e5rljDaLueSEDnp8dOE0fYCv3XcdtvqXLeb8yxmzG1tpzvD6kZa2iUBfdx7JUEsgahmI45ZJ7a7ndxWXb+HzDq66y2MpqLeVzHvmopvX+V0nsc8tPap/zMpjAIAhFHOzXRRzUVs7FYbp10Spp6fimNfF9VcGKci1Y6PrMlasqzFpG6l6TbYjgXsm3U01cg6jmmqwdleHjvUfbi79EZte1xX2lzA11jQ6rI7brs5h3nMfluTRWXc4TzfG2n3Ou9J436HTHvVNtKO0wTgBMW2epnwmdlxK2jn/trmUHfWvMYJ+O2PFDVxVb3m48JhXpvaR1+X4fLzb33B0uMmjdWdti0T4HO+3WCeHy9SLR7qvTDvY05QbY9h0vuZFEYBQBgl17WZoCiBo28NyUmm4pXn9lXD1pM5xnFhoNu1NwFpJe1ZlcKE4c30Xkm37XEVvll+MMl22h890m4VsuYd4uf9g8DD+Z7Pj0vTvp9JYRQAhFGSG8B2OY+VjMVrq1wCwwMBatIkUu1ER8ut+pIURgFAGCW54axxqBkHKUTO13TjTfsOBdJUGdtxyJOWUiEpjAIAhFFyw5sg1K6pOWlSH85mZmtul35J5bgNpRlj2s58nFA6zVI8JIVRAIAwSm5IM3lPdzKdTHbUt5wNV9ZFtyZ0amfhTdu3s/DWxEXzGJNKUhgFAGGU5Lq1rYbWOppDM8Fy5WbG3ExM1Lc8SUJpKtKzrqlLUhgFAAij5IYzy5JkeZuEoKzNupzZhLm8iaISTLPMSyaKysRF2p4URgEAwihJkhRGAQDCKEmSpDAKABBGSZKkMAoAEEZJkiSFUQAQRn2ZkSRJYRQAIIyS5MPr98986Ypnyz304Zdb/5UURgEAwig5ne06nu94za9M/bzXveyZS8/b8yf/Vluu0Cyfkrb8jWc9Zc33fcnbXri0hmsC5XK3c8Jz7luf9CNvfJ7XlBRGAQDCKDl9GE0YOfaRbVNV0X7h539OGJ2jL/61X1xqzy+9/YVz337WCc1arX1BMfdlv0998s+tqDqa90+2k2Dd3v637/zN0b7f/7pf81qTwigACKMkHxpG4yf+/N9NfE5CRfscYXRlfv09Lxq1YwX8BLfVep2Htn3Zu160cPX7XrKifVz7wd8aBc/uDxp5f2Tfrzjh33i9SWEUAIRRkg8OKc/6pV8Y/fm7v/n0ic9JV9I89rnPfIowOgdPe+VzRu34lt/5lVF1Mq6ku+xywuhqKoySwigAQBglB0NKAlFCUP6eCtfQ4z//1hcsjW1MsOkLo7k93nTWQ7t8pvpW9/dt/+Nvfv7Cf3r5s0bBJb75t58zqtqNO4c855Tfeubo8a96wdNH59S371R0s99U7/q287ZX/+ro/rZC2HZvTRfWbCOBPfvKPttK8lU7XzI63jr2cfsqj/z1toWn/+J9PwRk8p9sM3//6z+cPO4y+8sx1/7y3LRF3zlXN+DnP/upD2n/ek2yrfZ9kdsynrRv39X19l3//lcf0n51zrXvE5//S0vdwNv3Rs4xf+92620rxrk/beqzSgqjACCMkps0jObPhMBJExm99sXPGD0mQSPBry+MVvfdvlCb8ZB1fzeU1fb6bENPO3vr0HMSfLrdThPYxlVyq+Lbjtms9kmgqkpw37ElBLbjaMvcNq7rc57XVg1r/Oa25z1t7Ot2zht+o3d/MW1SldU65z67r0k7edLO37vvvBNw+/b/B9t/+SGvS7Vfte+4fee9ccGf3nfuv/SUnx+9/t19/MnJzx7dn8myfFZJYRQAhFFyk4bRVJ8qlAxNZJTKXQJQzCRGQ+FuOWG0jiOVu6qEJlC1Y1pTle0Lxi/99aeNqmh1jFVdzLbakLOSMFpdmLOftE2CboX3apMczxWnv3h0f/6soJwQO9T+2WY7A22Ot7pMD43h/OxbXrC03798/a8vBc9UMXPOuS9BriabyuuQLsAV7PLv9rXpC6O5vyY16nYZzjEmQHaPsRtGa985xgrYte+0UbZb20kI755nhf+++0hhFAAgjJKbJIxWt81anqOvmlePrUrVPMPoC3/1qYPdUyv0td01K5AluHW75Cbo1Hm03VZXEkYT8roBPf+uGWTTDbZ7f8JYnWu61PaF+77Al/PM7W232b626pudNuGwwnE7M+64MaN9YTRW99pUMPtm380597Vft33HjRmtCmv+7HYDHlc1JYVRAIAwSm6yMFpVrO5ERglaVamqcYTzDKOpblZ34e5zEqqyrTZ0VogZCmzVzbQqhCsNo0NjXGubQ12bq836lmupY0zY7s5sO1ShTtisqujQMiw55xxXqrMrCaP5YaCvq251n+2O9VxOGK01TruhM91/H64Jl0hhFAAgjJIPQxhNwOmbyKgqkak4dtfGnEcYrcAS0901/x43kVJVPlNFzGO7VmBqA9BqhtG+ED20ze59advufdXdtttFNRXr7uuw0tl0h8Jown93dt+E41SjE4ZT2V1pGG2ry+251us7NIESKYwCAIRRcpOE0QTAdjbcbrWvxmemcjopfCwnjMZ0B61gUiaUpYLYHbdYM9BOcr2G0WqHBL0Ervy7tSq/3arkcpdJWU4YjTX+trrqViUz42GHznWWMBprPGt11f3W+1+y1AW7b+wyKYwCAIRRchOF0TYodLuJ1sRFCU5tV9l5h9GqlCXwpJtmjqlmjE2lLGMw63EVWhOY+yqjZTvp0XoKoxX4J1mTRXWD3aTZducVRmt8aIXiGs/a14bLDaPpTtx21c1Y2O4YYZLCKAAIo+QWCKPtJDnpFlqP6Y5tXI0w2jVVsrZLbvf4hoLluOBYM9c+XGE0Vd7qCp02rbU3u9Zz22p0tV+qhmsRRmt23+qqmzGwfTPsriSMtt1yE35r4qRJa7SSwigAQBglN2EYzTqW1R2zJuHphoOh8FFBqy9MVDfPNoymMpb9t12F+ybSaY/xtFc+p3eipW6VtW8pmL41S2ss5FqE0TqfSeM++x7XBtlazqZrXrPsd6UTGHUnLMpkUX0/SswjjNZkTrXUzbjlcEhhFAAgjJKbOIxmIqNaAzKmEjlt+KiZcRMY29sTpKrq1YbRdtKkvkpnBc9aUqYCbHXh7c7qWhP9JNDUmqXtDK05l25QrfvWIoymi21uSwAb99rUBEJ5bHse1cU3++4ue5KxndXFur2vDXuzhtFaZqXau2/CpWnCaN4XQ+day9yUQ7Mkk8IoAEAYJTd5GG3HB8ZUSqcNH+kG286Mm31kWwlIFWi63XRrnGDuT+UtATPdU6tSltvbQBbzmNpWHpfHx6qAJky3z0mX39p/ZgJOAE3oqS6/dd9qhtFammWoG3PXBPDuEjUJqdWtNRM85Tzy+tR6rDmPbmCsinTuy7Zy3jX+d1IYbc9j3KRCQ++HGhNa7djuu29d09hWdUkKowAgjJJbLIymG2jN+Nq3puVQ+IiZWKgNnhWcqnLXN2Y0IbY7m249r52IqFsJrG7ErQmbfd1YUzHtzsSbfyfYrsWY0erqmuA1zetTEwh11+HMpEY10223rfqWkWmDbTcMTxNGq3LcrXZP+37oTtjUF8TrR4ycg88mKYwCgDBKbnITMhMM2hlbW8fdl66Vub9vMpu6P2Hq429+/lIwTFUtzxmqCub+PDbPSXCcpkLWPif7S/Vx3ONzvKkUJjQliNXx1/m0oa/ap6+SV6Ew9/eF9b5t1uOHttd3btVe3S65tf1UQRPKp2mrVIpz3vmzKpzZbrbfXTe0O5HRuNd6mvdDjq/avK+6WpXuoWBPUhgFAGGUJDl3a6xxulNrD1IYBQBhlCS56i53/VRSGAUACKMkyZnNuNeqiGaMsbVFSWEUAIRRkuSq204ilTG/2oQURgFAGCVJrroZH5rJlPomZyIpjAKAMEqSJCmMAgCEUZIkKYwCAIRRkiRJYRQAIIySJElhFAAgjJIkSQqjAABfZiRJUhgFAAijJEmSwigACKMkSZLCKABAGCVJkhRGAUAYJUmSFEYBAMIoSZIURgEAwihJkqQwCgAQRkmS5GbwmKs4ABBGSZIk19p9ruIAYOOH0WO+0EiS5AZzr6s4ANj4YfQaX2gkSXIjedt523e6igOADc5te7Zd5EuNJEluLHe80VUcAGxwjp+34xRfaCRJciN5fM/2J7mKA4ANzrGPvuwnfKmRJMmNNJPuwt4XPMpVHABsAowbJUmSG8Y928909QYAmyeMnubLjSRJbowuutue5+oNADYJd5y77QmL/7nf7QuOJEmua8/dfoMuugCw2aqje3a81ZccSZJc11XRc7ef4KoNADYZt56/7bGZEMAXHUmSXJdB9Lwdly/sff0jXbUBwCbk+J5tp/qyI0mS69Hbzn3501ytAcAmJb82Lv5nv9cXHkmSXF/dc7e9w5UaAGxy7u+ue60vPpIkuS4qonu2XaR7LgBsEY599GU/YfwoSZJcB15zePcrHuPqDAC2EMf37PjZxS+Aw74ESZLkw+S+O/fs+HFXZQCwBckXQL4IfBmSJMm17pqrIgoAW5x8ERw/b/uFvhhJkuQaeZoxogCAEflCyCLTt5+7/QZfkCRJclU8d/tlx/dsf5IrLwBATyh9waMWvyxeYywpSZKc5yRFx/dse54rLQDAREZddxe/NG4/b9tus+6SJMlleOD4edvffdt525+RH7tdXQEAllUtzRfJYjg9dfHPnaPxpeduv+z2+9YqJblFfdWzf/JwfMMJ/+qQ9iC3ujsuyQ/Yx8/d9o7j5+04ZfGa4WeMCQUAAMCq/VZ1v9dqCgAAAACAMAoAAAAAEEYBAAAAABBGAQAAAADCKAAAAAAAwigAAAAAQBgFAAAAAEAYBQAAAAAIowAAAAAAYRQAAAAAAGEUAAAAACCMAgAAAAAgjAIAAAAAhFEAAAAAAIRRAAAAAIAwCgAAAAAQRoVRAAAAAIAwCgAAAAAQRgEAAAAAEEYBAAAAAMIoAAAAAADCKAAAAABAGAUAAAAAQBgFAAAAAAijAAAAAABhFAAAAAAAYRQAAAAAIIwCAAAAACCMAgAAAACEUQAAAAAAFjnl/sDZtcLo3QP3n6DpAAAAAADL5YlN8JzWBNQf03QAAAAAgJVw6Yxh9BxNBgAAAABYKdtnDKNP02QAAAAAgJXymEWPTxlEb1j0kZoMAAAAADAPzpwyjL5RUwEAAAAA5sWTpgyjT9BUAAAAAIB5csOEIHqxJgIAAAAAzJtTJ4RRa4sCAAAAAObO48cE0WOLPloTAQAAAABWg4sGwui7NQ0AAAAAYLV47kAY/WlNAwAAAABYLR616OFOEN2nWQAAAAAAq81bO2H0VZoEAAAAALDa/FQTRO9e9LGaBAAAAACwFlx6fxg9R1MAAAAAANaK7feH0adpCgAAAADAWvGYRa9Z9JGaAgAAAACwlljOBQAAAKvD61+/8MiTT9//MyeefuBVO8448KaTzjjwgRPPOLB30WtOPOPgtSRJcqt74OJFLzrxjP1v3bFz/8kn7jz007l+cBUFAJiZF+y89lEnnXHwGYtfLO9e9MCiCyRJkjN4LD9gn/Teg09yZQUAmKoKuuP0/S9a/AK50ZcoSZKck9ecdMbBE1RLAQC93F8JvcYXJkmSXB33X56hP666AAAjtr1t/6NPPOPgOb4gSZLkWnjSzv1vVCUFgC3Oie8+9LgdZxy4zBcjSZJcYy/etnP/Y12NAcBWDKI7D/20saEkSfJhdJ9ACgBbjB07D/744hfAYV+CJElSIAUArAn3jRE9sM+XH0lyLXzV+w8s/Nn5Ny+886LDC+/77JGFs794ZOGCrx3lBjev419+/sjC2y+6eeH3P3xw4aT3rmhio0uyrJyrNADYxGSygBNPP3ChiyOS5Gr66g8eHIXP8//u6MJXrzu2cNn13Ox++TvHFnb/7ZGFN+05tLxguvPAaa7UAGATc+LOg69xkUSSXM0qaKqff3vdLQLaFvYzV92y8BcX3jzz+2fHGT98sqs1ANiEvGLn4ccYJ0qSXC3TXfNL3xHE+IB/c/ktC6eec2iW99E1uusCwKasih44zcUSSXLevvL9B0bdM4Uv9pkq+Vs/Pn2VdMfO/Se7agOATVUVvfHxi//BH3fRRJKcp6/90MGFT15xVOjiRNN9e8r31Y2Z48LVGwBslqroGQff4KKJJDnvSYouvtrYUE7vBz93eMqxo/uf6+oNADZNGD1wjQsnkuS8zGypH/u6iihn923TdNk9/cCFrt4AYBOw7T37n+DCiSQ5T8+6xBhRLs8s9fOf/mripEZ3Z+JFV3EAsNGropZzIUnO0T8975BQxRUv/TJpLdKTzjj4DFdxALDRw+jpBy508USSnFf33E9daZwoV+67P3nzhHGjB97kKg4ANnoYPePAPhdQJMl5+BcX3ixIcS5mTdpXvPfguHGju13FAcDGD6OHXUCRJOeh2XM5T99+0djq6D5XcQCw8cOoCyiS5Io99RxjRTlfs0bt8Hvu4LWu4gBAGCVJcmHnZw4LUJy7//5Dw111XcUBgDBKkuSoiiU8cd5mHLIwCgDCKEmSvWaiGcGJq+GZXzgijAKAMEqSZL/pSik4cTX82NePCqMAIIySJNnvH+02eRFXx8zQLIwCgDBKkmSvp51vfVEKowAAYZQkucZmkhnBicIoAEAYJUkKoxRGAQDCKElSGCWFUQCAMEqSFEYpjAIAhFGSpDBKCqMAIIySJCmMUhgFAAijJElhlMKoMAoAwihJksIohVEAgDBKkhRGKYwCAIRRcuS5l966cPWNd438448cXpV91Pa/8p07tDkpjFIYBQAIow94wVdvW/KUMw/N9NxXvu/gg57/H8964Pm7v3zrwk1H7ln44tXHF05+78a8ePvwF2990PnlfJeznT/48M0P2s4HPnvLuji/vDbFWy44sir7KA4du0cgIIVRCqMAAGH0Ab974O6lwJDwNctz3/WJo0vPvfX4vUuh83c+cHDh3nuX7lp450VHN+TFWwJUy869t6w49IVUCoVRksIohVEAwJYOo2dfcmwpMFy7/+6Znpuul8Xeb9z+oPuO3v5AGl2tLqBrHUaXEyJf/cGDC3fd8yNhVBglhVEKowAAYbT1tR869KCw9Pt/dfNUz0v1s31eN3Cma2rGJK5WyHk4wmjIeS037AujAgEpjFIYBQAIo41f++6dS6Fhz1dum+o57/vMLUvP+cHNmzNoVBhtuxx/8vLbZ9pG2qa7DWGUpDBKYRQAIIx2xn5+79DdMwfYTFa0mcNoui9nTGyNjZ12IqM/23N4qY0uu/YOYVQgIIVRCqMAAGG0NRMPVdgKf7T75olde6vSlz/7ZuHNeNJa1mPSvjO77Ldvumvhjrvu6/Z7+50/Wrjye3cunP6p/i+4L3zz+NK2xwXDBMA8Zly1N4GxttWdwKnC6P6j94wqorNOZNSGvV2fPzZ1GM0403RxTghu2yTPS7ffacNwulynrQ7fet+LlW7VmbAq55ltzBJG84PFVd9/4DXKnzmeD33u2NjZkoVRUhilMAoAEEbH+pkrHwgmH/u78V11E0CKy6+/c+J4y3FhKZXYcSSUZnzq0LG+/eNHB7ddZDKlcUvbDIXMOof8mbGis1Q224mL8vxTz57u+aedf2QpPA6R7U36wSBBvoJjH2n3tO2kMJofGhJCx5GAO7QskDBKCqMURgEAwuhY33TeA11KUwkc99g2nAxVCSeF0YSXdsbdhKNU7FIl/Zuv3f6g+9IluH3uWy88snRfHtu3/VRDWxLy+h6XYFgV3gTIoTDaPnaaiYzaiYtS5ZwmjKZK2wbItEmemzZJaM7rUqRSOnQM2U47RjXHn8putpFZj/smZuoLo/kRIGvFtu+L9nja7SSQ9lVIhVFSGKUwCgAQRqeebGfcciz/8awHuugmEA11GZ0URttA210WpsJqG4TSTbTuyz4rtCUE9W0/3X5b+qq92U5VL/sCYjeMpto47URG1ZbZfs5lUhjNsbRtlrDX16W57VqbsNoXANtqc7oqdx+TfaX77qQw2j6mbzsJq207pyuyMEoKoxRGhVEAEEZnNlWvSWEr1cvi4n3Hp1oWpa8rapEwM80EQN3uwPl30a1oJvy1IWio2psA1lYvx82mW2GwKrbjJjJqjztjZ7u39YXRtl2Huj7XMWQs6VBluq0a55yHxnPm9gT5oTCabs71o8O47bSP65v8ShglhVEKowAAYXSibdUz4xYnVRyHur5OCqNtxa2tePZZ1dFUQttA1E4I1J3oqMa05jkJa0NrqLbjRfvGYPadQ7oFT+qi3DcxUBt8+8JoGwzTZXpcm2Sc7FBwzQ8ERXdCpllm023bpq/iOVTlzuRWwigpjFIYFUYBQBid2XZSm27YbLuaThpXOi6MtmMfu5MT9c2I2xcmE5yHKrR1DqlKtl1xu9XPGgM6FJT6zmFSd9t24qIE6b4qbPd5aYMiFddpZj9uZ9kdCrWTJjkaF0bbgDlpfGw703Aqs8IoKYxSGBVGAUAYndn3feaWwbGc7aRA45ZLmRRGi4S2WlZlyHYio25gqnGZbehLsKswmHNp10RtuwS3IXWou/HQObSBvRvU2omL2vVXx4XRjM+ddQ3SdlxoW42cZhbjacJou51Jr1H72ExuJIySwiiFUWEUAITRmW0nB0qVru0a2wagVCaXE0YTnJZLNzC1XWZTscxt1S033Y2r6toG7FqCpA2H77zo6MRzaM83jy+yzMzQxEXtWNZxYbS978vfumOq16md2bfOPbaz6K4kjN577/JeI2GUFEYpjAqjACCMLtt2TGd1u5x1nc2hMJqAViT0JhBNa7cK2Ya4CkEJcyHdTNtqaYWrjCdtx0QmNA51FW7PoQ18Cei1Fmg7o3A7SVGOd+hYx4XRdEue5jVqx+62x5YfEOYRRqtqXOcyrd2u3cIoKYxSGAUACKNT2852m2Ca27I0ylD1a7nddNMFdyXH2Y6dTAjNvxMOQ7rL9o2BTBfbNszVv2cJo90Jfqo92nCXYDptGG3Hv2am3GnOve2+3M7q2y6HM2k87rTddIdm0p1GYZQURimMAgCE0ZmsMFJLmNSkQwl/k0LOpDDarmc6qbvvJDNJUQXbdlmT7nZrht1a97Mqpd3QOm0YbWceToBsJy7K+Y1bRqavslwhOtsYWjKmbxKldrxsOz52aO3QacNou3TOuFmThVFSGKUwKowCgDA6V9vKX/v3bvfT5YTRTIzUbnuaCujQfalKFlX9zIyy3ce1Y1Xbbsjd5V6mDaPd4NcuqdIXcCeF0epe3HYlnua16a4H206g1B3POhTk+8Jou+7pNK/50GskjJLCKIVRAIAwOpMJaUU7mU136Y7lhNFsu7aZSuC4ylvWEE1VdmjtzVQ5uwzN9Ftdc2vf3arirGG0Xe+zHQfbVzmeFEbb8aapRtdES10zbra6Juc8umE6z6sKbe4fare0eTsutBtGE95rP31ruXa3lbZKewijpDBKYVQYBQBhdMW2k+SETNozazffoYl02plwE3pS0WtDXMJQxqlWcOyrdvatrTlufc222tdXVZw1jHYfM26ZmElhtDtxVDfcpfKYQNiOFR2qKrdtm+6/qR5X26Y7cdq6DZpDXXrbKmteh6zT2s4QnG3mtgq1eX90uxgLo6QwulzP++zXFj77je8JfMIoAGArhtEaZ1kkHM4rjCZctd1EK/DkeTVTbRuCx3Wnbbutpoo69Lh2oqBpqrzThNGEsZahSuQ0YTRt0nb9rTCZ4+iGx7TdUNfY3N4u/TJEO9nR0PjSBPYuOZ5uCE81t+/chVFSGI2LX2cj333WBVM9/r+cuWf0+L//D/7hwuf33bRmx3n+F65YOtbWx/yjf7zwz3/yXy5s/93XLXziK98SQoVRABBGV9tUvtqunOMC4axhtNz1+WMPqvZ1w2nGK6ZKOm4bbRfXSdXOqqIm3E2aKGiaMNpOhjSuejtNGK0gufvLty5NaNQlbZU2m+a1S5W2b73QbCPrsbY/Noyb7Ki6Sg+RAD3UPsIoKYwuJ4ye9p5do8f/t3/v761pdbQNo//kv/8fF/6Hx/3PIxOK6/b8/ff//J1z3e+/e+nJC0//lect7N77FWEUACCMlql2JajMOqNqAmKeN2lG1wpgeVy60abKmTGfCUCTQmg37MWhsZbtmMs87o8/cnimcxgXXKuNxoX1dG+tbU2z7+wv3XRTeU2bJKDmubMus5KQmNCZbWRb77zo6NK5pK3qmNrut+PaI113s62YQDtpNuTafnepG5LC6CTf/5FPjcLhWh5nG0a7+0634ef82xct3X/qn75tbvtN4J21fYRRAMCmD6MkSWH04QijD4fjwmj5yt/7w9H9//V/86i5hWVhFAAgjJIkhdF1EEbTXTXdVtN9tW7LeM3clvGkfc/JtnP/y377P/Te97Rf/rWFf/q//4vR2M9UOM+56EvLCqPxp/7V/zt6THt8rWd8+G9G+8i+nvBP/9nC//ekpyyc8sa/WPjb7xx+yDnGdEfO9v6fn/350b/7qq5vee9fje77Z//iJ0fn8a+f/EsLf/y29wqjAABhlCQpjM4rjOZxeXwqhm0YzW0JYX3PSdjM/S856dUPuv3XXvDS3kmJ/qtHPnLhze/84LLC6B/+xXuWxpV272u78qZ6WkEz/p//8l8tTchU59hnQmdt70vXHBidc92X7WW79e+f+8VnPijkCqMAAGGUJCmMzjGMfuxLVy0FvO4MuwlsFfraSYAqwP7j/+6fLLztA7tHt+W5qZ7WtjIWdNYwmufU49rZdV/7hj97yP6qUprbcl+OqY45+4gJtbkvlc78e+/fXfegyY1y3+P/1/9tNI62neSpzjnhWBgFAAijJElhdBXCaNs9thu+avbddF+t2xISq4LYhrgy1cfcl0rmrGE0lch63F9+9DNLt6c7bo65r5ttBdX2GKcZM5rH5/423HaD6lC1WBgFAAijJElhdA5hNCGvL3w969dPGN3+u6//k4eEv3SNHbeWaSqOs4bReZ7TSiYwyhIzeV5CujAKABBGSZLC6CoFt6w5mmpn21U3VcrH/KN/PBoDmq683YD6f//Mvx6Ftq41K25cSRjtq7rmOBKcX7jtlUuTFGVyopWE0XQNTsCuNUljgrYwCgAQRkmSwugaVBEzYc8jmq66VeFM6Ozr0juNKxkz2gbgBOPnvWj7KBi328951JjRWcNoQveTn/6ch0y+lOckhAujAABhlCQpjK5BGK3xodVVt2avTbWzfVxVIvO4vspo66xhNBMN5TF//x/8wwfdnkpobv+fHv+/jGbqbSdaWm433QqiWdIl40Yz8ZFuugAAYZQkKYyucRitbrnVVTcz0fbNsFshtZ2gaJLThtEKuu0SLLFmt83sufMYM5pJmB7RM2uvMAoAEEZJksLoGofRdu3QCpxZY3RoLdB0j+0G1TbYzhpGa7vpKnvORV+a+rlV0Z0ljLZrkfYdSyZsEkYBAMIoSVIYXaMwmspjBcL8+Zb3/tVDHpPurLV+Z8aZdoNngmTub5dhGRcos/bnS0569dI+s1ZpN9jWUjKZHKm7rwqc48JoAmt3IqQ6nu59aaN0ExZGAQDCKElSGJ0QRrNmZoLTkLWW5qQwGjMuM49Jl91u0GxDa3WdzeMzpjMhMt1rKzgOhdF//pP/cum4nvBP/9lSCM2f23/3db37qzGjj7h/QqXsJ2uP5jntpEbd52Vca51vttEeU40ZzfOzrWwz227DeM5NGAUACKMkSWF0IIxOsiYTmiaMJlTmMemyO27ff/nRz4yCZXdfNcnQUDfdrjmWdAvOTLpD+xqaTTfhMcfxiIHlYHZd+PmlmXEf0RmL2jebbsxtCe+PGDOmVBgFAAijJMktHUYT8qaxxnami23+3S6b0tcNt33ONMeQ8Jburgl/Q2Gy77jaGWynMV16s+RM9tWG15zP0DHnthxfuhz3nXdu697fHu+sxyiMAgCEUZLkpg+j3LwKowAgjJIkKYxSGAUACKMkSWGUwigAQBglSQqjpDAKABBGuTJ/5wMHR2qL2fyPZx1aOHTsnpEr3dZXvnPHaDunf+oWbUthlMKoMAoAwuhy/OTlty9doH/oc8dmvhh3QT6bF+87PmqztN80j7/q+3eNHp/XKf8+9eybF+6460cj8/f1cE55/eu9kPOb9nl7vnLb0vM+/MVbV/04017FSrd19Y13jbbzgc9671MYpTAqjAKAMLosv3j18aUL9B/cfM/MF/UuyGdz595bRm12770LC6/90KGxj/2j3Q+081svPDK67Y8/cnjptvx9PZxTXv/irnt+NPG84snvPbBw9PZ7l553wVdvE0ZJYZTCKABgq4bR8Gd7Jgecv/na7cLoMn3l+w4u3H7nj0btdvYl4yvRH/u720aPO3zrvQ+6PcG0wul6C6Nh95dvnaqa2iKMksIohVEAwBYNo1Wlyr+nrWhVqHJBPptf+OZ9bf7tm+4a+7j9R+8ZPS6hdD2fT4XRej/cdGRyhf3K7905euytx+8VRklhlMIoAGArh9HPXHl8qZvlqz94cGI303Tp7bsgz3MTLGLfdhIIct/QGMF3feLoKKxl25dff+coiP3+X40fG5nnfPlbd4yec9m1dyzs+vyxUQWy+7jsM/se6t7ad9zZdm57ywVHRrdnG1/77p2jfeU4Tzv/gQpljjNjOzPOM2Erf+879jynyKQ6fcfypvMe6I7bbmNS+07bHqnKZht/8OGbe/ed+/qqr6eceWh0X8Z7dsNoxsHWDxVpr0mhMO+1et8NhdGcYyqt1eY5r7wH86PIuB9M3veZW0bnXq9TjmdSGM3zci71vHH7EkYpjJLCKAAIo3MKowkDdYE9rvto+5i+C/L2gr9vgp2EgtCd0TSzwybE9ZHxlX2TK417TsJyglP7+OxzXIDoO+5qnwStdJftI8cW7+25OxMN9XV9rqrnUCjf+437ukJfu//uwepet31naY+qzvaFwDrnvL5DVdD2vrotIa66cI+boKl9THVF7juOt3/86FK1tcv3Dt39kNe32qDel12yv6EwmsCfNuoj2+vOXiyMUhglhVEAEEbnGEbbqmffY1NFa6un8wyjqSJWF888JpW8PD+zs1Yg7VY0K3h998Ddo2pjKlip6qX7a1+QW0kYDal2Zj+5P3/W+Sdw5vhSyc3+c3/OocJNjq9vJtmh+2IF31Q1pw2jbXskAI9rjxqz2W2jPKe6zvZNslTtce6lt/YG1Lbq2TeRUdvNO23Uvv+6kzelXavreN57eU+k3XN+9T7tVnwrZOe5+YEgITPbyvbbHwu6ATbvu5DXMO+zbDeV4bo92xVGKYySwigACKOrFEZzAV5BpK+aV4GxxpX2hbvlhtGqFKaLafc5FaZSUWu7otZY12531YSLvu6iKwmjqcR1u2tmvwldFQC797cz33aDWdtO3a681Y23r8v0UPvO2h65LeEstlW/2ncFwW5bVRu23Xu71dIaD9o3kVGF4PrBYyiMVrDuq7DmeOs42lDctk2qqt3npZrfF0brh4EE8+5rmNem2qntUi2MUhglhVEAEEbnFEYr6HUDZzsLbDeorkYY7euOm+CT57UBqAJPO3axtcYitgF2JWF0aGKnBJhx3W3HLcNSgaZ7DlXdS7fXcZPwtMe5nPao/b/zoqMP6R5cwS1jNbv77r523TBagbNvIqM6zuoK3hdGE/qKvjGtMRXj7j7yGoyr7A+NGa33Rd8PIW07ZRyqMEphlBRGAUAYnXMYrbDVdrNsK2zVhbftVjrPMFpjB7PfhLEEpHETKVUwTnjO/rvW+MA20K1GGJ0USoq+CX0qxKXq2tdNtg2Jk9p3Oe2RymVIAG1/FEgVtf6eCml1ha3jTdfpvvOoLr/drrh9ExfVa9sXRtsq79DrX13GQ1V2K8QneE8bRlOxbpek6Wu7qsy3xyiMUhglhVEAEEbnHEb7qlftxXc7hnGeYTQBJl0uq3tokSCQ7Xe7T05LO9HOegujCVHVzTfjGmsN0QpifbO4DrXvctqjAl1VEnMM7fjI+oGgKobVFt2QXGG0fU0T3LrdbGviorYtM0azG/S64XZo5ttuOwx1+R0XRtvbJiGMUhglhVEAEEZXOYx2x/VVaElQbMcXzjOMtgEtVdhU32rymAql7b6LVPVqqZM+22Nbb2E0ZvmQdi3R+ndbrZwljM7SHm2bZGbaGjtZ4y1r/GiF0zw24bk7aVBfGE1X24yzrImM2mppOx652q8vjA5N7tStaM4rjI5rt1reRxilMEoKowAgjK5iGO0GhxpH2u2euRphtGv2X8fSjocc15V1yAq36ymMViU0XWIT8qoyPLQW6qRuun0T94yzZivODwAJf2233JrVN9vORD41o/BQd+Pua1pVz3R/rR842i7JQ2G02iTLuox7X1SX36og13jXBPrldNMdWvN1Oa87KYxSGAUACKPLCKPdtSAr6GSZkElhNNXLcZPPJCx1g0vCRy7uh9amrO6ibRDK2MdxIXHSGqnTdPtcizCa/dYyLtW1tRvYpgmj1R7dJUgmWa9HzV7bnTSpAl6Nx+xru6Ewmh8KapKh6vrdXaqmL4y23Zfz3hi3VmmOuzuuOe3Z18W5HWc6y5qvwiiFUVIYBQBhdA3DaHWzLPrG7w11e63bu0t7JGTU7LNtcKmq21Boq8l32spsVVhzjKm69S0hklDXBuKqArYBphtu1jqMtvuu9h4XiobC6LTt0V1GJlXQCn7dGWO72+1bhmZcGG2Ddl8376Ew2obgdBXvPidV4zrmtjKec6kqejtrcB1LVWq7YbRmDk4ltsbutuZ9nPdMuzyPMEphlBRGAUAYXaUw2nazHLroHgqjVeFLgEkAzL/T1bcNJt3gUkExISN/zzZTRatjyLa6QaG6D+e+dM3MsjB5ToXXhJ+2mltdOyuQ5rhSda2A/HCF0bZil3PJ+M1Zw2i7fMu49ujr/ltVyzyvO4NxO7tv31It48Jou4ZnXzfvcWE0AbS6VWe7mdwq+8lrXl2Z+7rjJkwXOa96jRNq2x9XuudYx5H3X9ox+0pIrdsTctvXRRilMEoKowAgjK5iGK1ulqkYdSetGRdGc3Ff3UZbKlQMVdESHNoqXZFulENjIVO1yvF1SRWw2624qmBtKKkAktBWVbW1DqMx4zVDwve4x00ak5v2naU92spgX8W4XTIlQXDWMJoAV+3dt/+hMFrjOfveR3m9EjD7uuLWGqTd91Fe23o/d8NoVVUTQrvvjWqXblsLoxRGSWEUAITRFZoL/lxot10Q24CY+4YqdenKm/u73SjLVDJrrcaEsWyvtjk0WUy2ldBQz0uAGQod7XMSVus5Q5P/tAEp4wvz2CxbUsdf59Pub1z71LbGtUHui31hvu91GLe2avuadI9zJe2RYxu372xv3DnW/UOvabXruPYbd965v+/1mtSe6Zqc56Qtqv2r7cY9L/vI87LPvm7J07zupDBKYRQAIIySJIVRwYnCKABAGCVJCqMURgEAwihJUhglhVEAgDBKkhRGKYwCAIRRkqQwSgqjACCMkiQpjFIYBQAIoyRJYZTCqDAKAMIoSZKt/1kYpTAKABBGSZJr7R/tPiQ4cVW86BtHhVEAEEZJkuz3lF0HBSeuih/5ijAKAMIoSZIDvvL9BwQnropnfuGIMAoAwihJksN+5qpbhCfO3bd+/GZhFACEUZIkh33fZ48IT5y7r/7gQWEUAIRRkiSH/YO/NokR5+vHvn507HvOVRwACKMkSY78wrd01eX8fPcnbx73fjvsKg4AhFGSJEe+86LDQhTn4pe+c2zhVe8f+37b5yoOADZ+GD3sAookOQ9f8d6DJjLiXMwPGxPebxe5igOAjR9G97mAIknOy/984c3CFFdkftDIDxtj32s7D+50FQcAGz2Mnn7gQhdPJMl5eu5XjwpVXJZfve7Ywh/tPjTxPbZj54FTXcUBwAZnx879J7twIknO01e+/8DCp67UXZez+/aLbp7qPXby6ft/xlUcAGxwtr1n/xNcOJEk5+0puw4ufNHsupzBsy45Mu3768DrX7/wSFdxALAJOPGM/Ze7cCJJztvXnX1w4eKrBVJO9swvHFk46b1TvreMFwWAzRRGD77BRRNJcjV89QcPLnzs68aQcniM6Ns+fvNM76mTzjj4DFdvALBJ2LZz/2MX/3M/7qKJJLkapuL1gYsPL/ztdaqkfMBPX3XLwh/89aFZ30/X6KILAKqjJEnOPI70nC8dEcS2uF/41i0Lb/34zdN3y1UVBYDNzSt2Hn5MJgRwsUSSXG1PPefQwvs+e2S0nqRwtjVMVfyjlx0ZhdCJa4gOe7ErNgDYpJx0+sHtLpJIkmvp7+06uPBfPnl41I03VdMLvnZ0FFIz8RE3phd94+hordnMjnvGpw8v/Nn5N4+W+1npe8VyLgCwyTnx9AO7XRyRJMl1Ne74jP2nuEoDgE3Otrftf/SOMw5c5ouPJEmujyB64AOu0ABgi/CKnTc+fvE//xt9AZIkyYfZS/NDuaszANhSgXT/Exe/AG7wJUiSJB8e91+S5edclQHAFuT+9Ucv9mVIkiTX1J0Hd1pPFAC2OPkiyBeCL0aSJLkG3r143fEaV2AAgCV27DzwsyY2IkmSq+bpB3bv2Hnwx111AQB6WfyieN7iF8Y1vjRJkuS8xobmR29XWQCAiaTrbr40Ttx54LQTzzh4rS9RkiQ5i+lttXgtcWomTHRlBQBYNvkiOemMgyfkS+WknQfekW42i180e0luXf+PJ73k2vh/Pf13rtEe5Fb34DknnrH/rSedsf+U9LDKEnKungAAALBaLNzvtZoCAAAAACCMAgAAAACEUQAAAAAAhFEAAAAAgDAKAAAAAIAwCgAAAAAQRgEAAAAAEEYBAAAAAMIoAAAAAEAYBQAAAABAGAUAAAAACKMAAAAAAAijAAAAAABhFAAAAAAAYRQAAAAAIIwCAAAAAIRRYRQAAAAAIIwCAAAAAIRRAAAAAACEUQAAAACAMAoAAAAAgDAKAAAAABBGAQAAAAAQRgEAAAAAwigAAAAAQBgFAAAAAEAYBQAAAAAIowAAAAAACKMAAAAAgPXIyfcHzq4VRu8euP/Zmg4AAAAAsFye2ATPaU1A/TFNBwAAAABYCZfNGEZ3azIAAAAAwEp5zYxh9LmaDAAAAACwUh43QxA9tuijNBkAAAAAYB7snTKM7tRUAAAAAIB58aIpw+iTNBUAAAAAYF48ZtHjE4LoDYs+UlMBAAAAAObJ7glh9DRNBAAAAACYN8+YEEafqIkAAAAAAPMms+QeHgii+zQPAAAAAGC1ePdAGD1F0wAAAAAAVoufHQijj9c0AAAAAIDV5IZOEL1YkwAAAAAAVps3dsLoSzUJAAAAAGC1eWITRO9e9Mc0CQAAAABgLbjs/jC6W1MAAAAAANaK19wfRp+rKQAAAAAAa8XjFj32iPvWHgUAAAAAYM04QRMAAABgVdh92e7HXHDVructetoF+3aduejeRa9d9PiiCyRJckt7d64Lzt+3a9/in3tyvXD+VbuekesHV1EAgJk5/4qzH3v+lWduX/xiuej+LxlftiRJclb3XnjlmS/ae+1O3fkBAJOroIsh9A2qniRJcm5etevwhfvOOlW1FADwEPbu3fvI86/adfLiF8YBX5okSXKVvDFDf1x5AQBGpEvuBVeeebEvSJIkuUaeufeKsx/tKgwAtnYQfeL9kxH5YiRJkmtmJjz62DfOfoKrMQDYikH0ql3PWPwyOOYLkSRJPlzddj/+zQ/9uKsyANhSQfTMnzJJEUmSXA+BVIUUALZKEM0Y0Uwg4MuPJEmuky67xpACwCYn63wt/qd/qS8+kiS53iY1cqUGAJu5Krpv1xt92ZEkyXWpZV8AYJMG0fu65xonSpIk1+340d2X7X6MqzYA2HxV0Z2+5EiS5Hr2wn1nneqqDQA2ER+9ctdPLP4Hf7cvOZIkuc676h7OHBeu3gBgk7D4H/tpvuBIkuSGqI5eeeaLXL0BwGYJo/vOusGXG0mS3CDudfUGAJuA8684+4m+1EiS5EbSREYAsAnIRAC+1EiS5Eby/Kt2PcNVHABs9Mrovl0X+VIjSZIbbCKj01zFAcAGZ/E/9Gt8qZEkyQ3mHldxALDxw+gxX2gkSXKDeY2rOADY+GHUFxpJktxoXusqDgCEUZIkyTXXVRwACKMkSZLCKABAGCVJksIoAEAYJUmSFEYBAMIoSZIURgEAwihJkqQwCgDCKEmSpDAKABBGSZIkhVEAEEZJkiSFUQCAMEqSJIVRAIAwSpIkKYwCAIRRkiQpjAIAhFGSJElhFACEUV9mJElSGAUACKMkSZLCKAAIoyRJksIoAEAYJUmSFEYBQBglSZIURgEAwihJkhRGAQDCKEmSpDAKABBGyfn4yWs+srD3W3vG+vFv/pW2WoGfuua8hX0/vGzhKzdcrD1ICqMAIIySjIdu++HCNNx+160L3z38rYXPXfsx7TajN99+YKkdv/q9z2kTksIoAAijJKcNo8WPfvSjhW8dvELbzWCCfJEKaff+VJ6/9oMvjvzy9Z/WZqQwCgAQRsmtFUavvOmrC1/87qeW/NL1e0cB6eoDly/ccseRB4XSb+7/uvab0r/7/iWj9vvhse8vfOLq3Q+5P12hi7we2owURgEAwii5pcJoAujQ4y686qyF7xza96AKacZCasOVK4ySwigAQBglhdEZxj/2dTmlMEpSGAUAYZTk3MPoFTd9Zenx3z963cRZZPP46w9/e+F7R74zGmuarr+psg4955LrPrE0frJuu/g7F46Cb7YRr9r/tdFts5znp7/90VE35DqWVHkzmdDHrjpn6m1kbOdl3//C6LnZRraV45p0LBkHWudUMxNnFuO6Ldsobr3z6NLt4yY7ShteesNnF7598MoHHcs0E0xlu20bpw2+fuOXRxNUZTs5n89f+zdLj8lrMilMG/NKCqMAIIySXNUwmjA5qYqXwHXdzVePuvL2kcCVsNP33ASrIqEogXeI3Ddp2ZmEvhtvuX5wG3fcfXwUxKYJ4Xfdc9fgdvbf+oPRvia1cYJbbktbTzODcd/2skRMOylSl+wv4XuaCZU+8+0LHrKtCpXFbXceG9s2CcSFya1IYRQAhFGSqxJGE1SKhLy+INp25U0gPXL80Oi2e+69e+n2/P0L1100NowmtBbH775tFJru/dE9DwpOB2+9abDSmqCVsNk9lpzznffc8aDtXHvom4PnnIDVDYnZxtHjhx8SbPsCaV8YzblnOzHnVuT86va0WXdbqe62JCBn+zmvNvwPtW83jLZt3IbRtGnbRuMqrgmr0zyOpDAKAMIoyWWH0bbKmO6y4+7P7LFtOEt30DbYJcR0u8m2YbS20Vb58vjstw1eqVp2jyOPa2cA7h5LTJfbNiBn1tvudlKdrX0l+KUy3O3+2wa6HP80YXQ5Y0bbqnSOKefdBvHM1NtWkhOO+2bv7VZCD99+cHTuOdeEyWqnBPRJFc+cf5Fw7jNFCqMAIIySnHsYTWBpK3jdYNV2PU3AGapYtoGpHRvaDaPp+jq0jbZCmNDVfVx7f85xaDttwEslsNvtN8F3XPiusbFVsc2f3YA9rzDaViD7gnP5g6PfHVvxbcNoQvpQ26Qr9aSuulnix3I/pDAKAMIoyRWF0VQKE4y6Zvxgt2LZF8xuuuV7S/d3K4jdamOR5wyF0XHbSIBqw1k3SLeBa9IEQ2047o4fzRqrQ/d1H1cTLHWrkfMIo21o7uu+2x0nW+E4ld9uOG7bZmic67RdcNsu2ePGqZIURgFAGCU5GJSmpa/LZsJhBaBUGCftt8Yjpqo5FEYnVWrboNguM5OxokW66s4yKVN3HGwCaFvtvejqD6+ojZcbRtsus5ffeOnEfbbV0W6ob8PopO20lc/u656K8LQBmaQwCgDCKMllh9GEsaFJcdpqZ7s8yZDt5DjLDaOZVbbIsiTtWNC+28ct2dIee/e+Nryl0pjlT7KPSVXFeYbRTNQ0yyRB7XIx6bK83DDaHlu3q24b1Lv7ICmMAoAwSnLqoJQlOrqhMWtqFpmxdWg70yxVMsRyw2i7z3bioHbG31RPp2mHdtbevkCWID60TE0qhqkSrmYYbSdJ6tvGuFmPu20wSxjtdsVtg3DG9NZkSuPOn6QwCgDCKMllTWDULmEyNHHOZgmjqXwOPebSGz47Gl/at95oAln21TcZ0DzCaDt2c63DaFsBra66qRhXt+xUbX2WSGEUAIRRknMPowlh7Rqb3QlxusEwgW25xzNLGG2PayiMpto7aZ85n/b8pjnOVAiztEpbNRza3zzCaLuNaSYKamcT7s5yO2sYzYRMFTyrq27bFXrcxE4khVEAEEZJrmhpl/ZxfTPpZvzkPNabnCWMtuMi2+pfuyRJupJO2mfGwRbLqfJl7GqtRZo/V2M23YxTLbK/Wdrxq9/73IrCaHem5ATxmoE4IXU5kzqRFEYBQBglhdGpwl8b2NJNtRu4YsZbrnSZj1nCaDupT6qk7cy+6W47bVhKNbOviphzrOVaJq2h2Ya17nHPI4y21d62Cjy07E1mKR4Kx8sJo+1kUWmv6qrcXZqHpDAKAMIoybmG0W7gylIj40Jdd4mUvtl30811XBjtq8D2VT/71tLMLLpFJmEa2k4m3qlgleDWhsVss12vc1yobZdSueS6T8w9jGaMZnuc49ZObbvo9oXF5YTRtEXNgFxtMm4MMUlhFACEUZJzC6NZv7PtjtqtfiastUu2JBD2jS/98vWfXqrcdYNiG0azj76wk+NoA1Vf2GxDZncd0vYxmSG4uO7mq8eG4wTshMK+8bIV0PJn9zGTwmjbxTnV5b5JkLrdkjO7btqh+5iM5Wxfo77Qupww2u0qPPQjAElhFACEUZJzD6N94awvmFUYCgmdCaUZ05nKabtESsJMd93Sdvvt+qZ5braRsYptZS4T6vQFxO5YzhrLWtvJfqorb8hERH3bSWCt4Nw9n8wsmzGp7T76uvNOCqPdpVtynDm+bvsmpOa2Iu2Qf9exdCdT6qs8rySMpuLbspKJqkgKowAgjJLC6ExhNFW8Ngx2u6TW+NI28PSRENkNon3ddNtxqH3b6KsODlVhh0gX26FAG1MBbiuofSSQDo0rnSaMZpKhScveVCBNBXccqQiP6z673DDafe40EymRFEYBQBgl2WsCX03SMynYlZffeOnSc/L3oTGGmXQnYxZT9UuIyZ/5d24f6t7ZncAoXX8zBjIVyGwjZuKi3DZtF9FsI1XCHx77/ijAZhsJl6lw9gXicUvJ5PhSuaxjSdBMVXLchE1tG/dN/NRuP9vLdnOc4yYHyoy26Z6c86hjSRtlX5MmbMrz6nhmfb/U2Nh0xx7qTkxSGAUAYZTkhnOW2XS5tib81zjcjB/VJqQwCgDh5EW3T/m4a2fw5I2yTV9mpDDK1TWTIxVfun6vNiHnF0bfNON1z3p336LPdXkObB2OL7p3iqB36qILM3jqFPteF9v0ZUYKo1zdqugtdxxZmvFXm5BzDaM7Z7zu2Qjuc3kObB3qg3+tMEpSGOU8zPjWTLiUsaztTL1Ds/SSFEZnuCYFsAXD6KbFlxkpjHL1XosiEyyZuIg0ZtQ1KQAffGGUFEa5ZmE0s/uOWwKHpDDqmhQQRoVRkhu+a2icdukWro55DTJpUZbimXbZH5LCqDAKCKPCKEmSpDDqmhSAD74wSpIkKYwCEEaFUZIkSWHUNSkAH3xhlCRJCqOuSQH44AujJEmSwqhrUgA++MIot9IMpvGT13xk6udk3cflPI/3mTar9uu61ZYy+cJ1F41m0LWWKCmMuiYF4IMvjHKLWdxz791TB6HLb7x06XmHbvuhdpzRtNk4jh4/vPD1G7+8JZbV+dGPfjQ65wRS7w1SGHVNCmAaTr3fk4VRcnOE0ZCQOc1zjhw/JIzOIYwmdH7vyHeW/OGx7y8cv/u2pba98ZbrN3U7ZF3XnG8CaSqk7X1X3vTVhdvvunXhO4f2ec+QwqgwCgDCKDd7GE3InPT4z1/7Nw96jjC6/DB69YHLe++/av/Xltr3775/yaZui3TP7avIp21CQrr3DCmMCqMAIIxyk4bRO++5Y9RNNyRsjnv8dw9/a6mqJ4yuThiNN93yvdFjUi3dim0kjJLCqDAKAMIot0AYTXfICpn5c+ixqWBVaE03yr4wmqpebvvaD77Yu40fHP3u6P4vX//p3rGobRfghOTrD397NLHP0DFlP+1zbr3z6OjYuhPiZH/Z77WHvjlYjcz9+bOdaCi3xYuu/vDouXfcfXy0n3Qt3X/rDxY+d+3HRo+9+DsXjoJjtc9d99w1ClJ9EzxNE0avuOkro8fcduexh9zXPZZ7f3TPws23H1j40vV7B88r5//V733uIW01rmt2utF+c//XR48rcjw57qHxxWn37LN9Trri5ngzRrSvLWK1Y70/8p4MOcd6TPe5l1z3idFrUG2ePxPiu11+u69l/p4u0Gm3vI455mwn9116w2d7z+u6m68e3b8VxvJSGBVGAUAYJdc0jCYMTJrIqCYuqrDZF0YTwMYFrQoZ3bD6/aPXPai7cMJVG+wqrLShJ4GiguHh2w+OnlcT4nTHWw4db/e420pcQnAb3LLt/JlA1k78lK60+TP3p2Lcjvu85Y4jo1A3axitsJ/nd2c/rv1nn9lWezzdsFTnVSE0bZljzJ9F37jMBMfsu23fWO2b+7pBO69JnVv7nIS+CqXd5xRf/O6nRv/O6573SB1fzjH/jn3tU+/f7Lf9oSDBu9tubaBuad9/CbN9P8LUeScA+3+DwqgwCgDCKDmnMJoL7fw9wWHcREYVaDLz6TzDaC7wq8LXhs5UABNO+vaTil0Fi898+4Kl21OhrFDS7mOlYTTH8alrzuvdT93fBq2Eqwph3XGfk8JoQl29FqkM992esN3+aJAQWm3YHkedV0jFsirGCcip9nXDYJkqb4XwtjKdNqgu2t0uxDnPqmZ2n1OV0vZ8+sLoNN1089h637bhu6qydV9eo77XMgE3z6vldKpyXu3X/TGmzquvSk0Ko8IoAAij5AonMGoDW99ERjVxUbrOJsjMM4xWsOwLigmn3cpY2124r1JVwaw9j5WG0U9/+6MPeU4dd2iDatslOST0TRtGs516XjdQfeWGi5cqjN1qazvONMfVPa9uCOweSyqD7dqftf++8067VNBu2z/7GAqQ6f6a1zChfaVhtH6g6LZrt8reVsfb17JbNa0gm/d2348H9Xp86+AV/s+gMCqMAoAwSq5GGE3Aqe6R3YmMakxpdemcZxitbXUrakMmTFTVru/+VFSLqnKtNIwOjVetbqKzTMJTATBtXUE7tt17E7a7oalC0bcPXjm2G3XGP077eqTKXT8y1G3Z/qTJk+pY2jG4db7pwts3PnTc+2/aMJrtjvuBoP3hJIG5Qnv7Wg69x3Iu3a66eX798NHtKk4Ko8IoAAij5JzCaE3U0p3IqK1E1oV8dYecRxjNBX91/ayJgfb98LLeiWjaoJLw1q7T2doNHusxjA6RkN038VGN4UxlsO+c027dkD7p9Uig655jbWfcmNa8Pt3gm6BYgTpBMJXJjO1sq7srDaPVRTdBftxyMUV14Z4mjLYhtn7EyKRQNXu0/y8ojAqjANYHp97vycIouTnCaIWfBIfuREZ9FbcKC/OawCj7ynPa6mCN0+tOylPdQadhPYfRbhvV2Nlu99xu202iPZ5Jr0dfSKvjGzdz7FB7JpCmwlhdXouEub6ZamcNozW2c6jNh7Y7TRiNNblRddWt91rb9ZkURoVRAD74wig5xzDaXqBXGKmJjGriorbb6LzDaHecaCpqB2+9aen42q6p1Y00lbeahGbImrBnI4TRdtxnG/y7bZfXZdw5t+NXZ6mMVltVZXRcAKvKaF6joepkKtupoNekS32TYy23Mpou3dNURqtr7bRhtMYBV1fd+nFkqEswKYy6JgXggy+MknMMozWOMCG0JrPJxX+7dudqhtG+wJdqYcaCtmtw9k20NGk7CUbrOYymIlrLiHTXDZ0mJA6d19DrUZMitWNGa+xkxoVOGjM6NInQUFu0+1lOGE3Q7lbzh7rbph2ruj9tGK3HpatuddHtTrpECqOuSQH44Auj5CqF0YzhrG6WVRXtTpozFEZrzGk7O2vfjKVtGO12jZx0jG01rzvRUlvxa8Nzuoj2haFuRfLhDqNtgOyOU6y1NdNefbPp1nn3baudaKi11mptZ56tENZdJqbtiltjiNvAPG4tzqG2XM5sujW+eKj96j3YVpenDaPtbL21HE3a3f8VFEZdkwLwwRdGyTUIozGz5hYJGd2lS4bCaK3JmCDTrv+ZqmYtudENo1WJS8jq7qfGq2bCmjaAVWUu3Si74ysTkFLJbWeDTYCqsNQdC5l/133rIYymDWrplLad0obVbTThsSrFFfRTMe2uvVlhtCp9fcffFwYrkOXPdj/t2q/dKnMF+u5z2q7VmYRpmjA6brmfqubmXLvjUPP+6wvFs4TRes8NvfdJYdQ1KQAffGGUXMUwmiBZ9C3xMRRGExir0pkAlGASU0nLhX1fZTTBpapQeU7GISa41uyxfWMN0/2ynYE3+8hz2tu6S6PU8jRVdcyxJ7TWhE3rJYy2Ab27pmgCVh1rAnoCYIJphdScT1sdrTBa55lKd25r27av+piKaL0m2V/2E2vpn+yv+57Jv9v2zPsmPxrU+yGvSSYgmiaM1mROFWC7XbLbH0vyWnbPqVvNnCWM5oeL+jFgaEwsKYy6JgXggy+Mkiu01rjsq/4k5OS+boCoLqO5r29cYS72E0SqQlVVtFTm8vg8rxsUEy5TPWtn062Q2bf/Cr4JdO0sswkR6Z7ZtyxMqocJMRXmKkjmXOp8ah3VqlBW+wytd5r7hsYU9m2zqrq136HXpQJ6Htet5KZ9s432PBISE7a763u2Y0Yz1rZtq/wwkApk2525ewzdmXGzn9w2tI5obs9xtM8Z95pU+/bd962DVyyFwvzZ1/7t5EhVle17v7Sv5TSVzrx/J80oTAqjrkkB+OALo+Q6NWExwakmkZnWBJp2JtzVeE4eOxSoNpIJVkMT+QxNYJTznrXrafaxnOdMqkJO+x4a97rm/ZXHDI2jXY75USQ/hmyG9wgpjAIQRoVRklxzJ82my4daa5nW8i6kMOqaFIAPvjBKksLoqpqx0jXGNRMlaRMKo65JAfjgC6MkKYyumpmFtyZfUhWlMOqaFIAPvjBKkiv0qv1fG83e285ezP7JqDJJUiZoyoRTs45zJoVR16QA1o5T7/dkYZQkSVIYFUYBQBglSZIURgFAGCVJkhRGhVEAEEZJkqQwKowCgDBKkiQpjAqjACCMkiRJYVQYBQBhlCRJUhgVRgFAGCVJksKoMAoAwihJkqQw6uoU2Dqcer8nC6MkSZLCqDAKwAdfGCVJkhRGAQijwihJkqQw6poUgA++MEqSJIVR16QAfPCFUZIkyTXzgGtSAD74wihJkuRae7lrUgA++Bs/jB7whUaSJDeS5+/bdZFrUgA++Bs/jF7uS40kSW6wMLrTNSkAH/yNH0b3+FIjSZIbyivPfI1rUgA++BucC/fteqkvNZIkubHC6K6fdk0KwAd/o1dGr/ng43ypkSTJjeNZN7gmBeCDv1kC6b5dl/hiI0mSG6SL7jtckwLYDJx6vydv6TB65Zmv8eVGkiQ3ghdeceaThFEA2CTsvmz3Yy64atdhX3AkSXKde6neegCw2aqj+856lS84kiS5rqui+878WWEUADYZe6/d+ahMCOCLjiRJrs8getaFm/hSTBgFsMWro1ee+VxfdiRJch1690ev3PUTwigAbO5A+g5feCRJcp1VRU/Y5JdgwigA7N2795GL/+nv9cVHkiTXhVftOm0LXIIJowAQ9nzzQz+2+J//Nb4ASZLkwz1OND+UC6MAsIW44JoPPu6Cq3Zd5ouQJEk+TBXR3XuvOPvRW+TSSxgFtiCn3u/JmuKh5Avggn1nneMLkSRJrnFF9NQtdtkljAJbEB/8KcgXQmax8+VIkiRXuRp6OLP7uyYF4IOPJT7+zQ/9eLrL+KIkSZKrsXTLom89/4qzH+uaFIAPPvqrpN88+2fMtkuSJOfomR/7xtlPcE3qmhTwwcdU5Evj/Kt2nXzBlWderAsvSZKcwePpbXXhlWe+KDP4u6pyTQr44GPZ5IvkwivOfFIWpF78cjll1M1m366dJEmSF+w7602LvmrxGuF56WG1hWbIdU0KwAcfAAAArkkB+OADAAAArkkBH3wffAAAALgmBeCDDwAAANekAHzwAQAAANekAHzwAQAA4JoUwAbn1Ps9WVMAAABAGAUAAAAACKMAAAAAAAijAAAAAABhFAAAAAAAYRQAAAAAIIwCAAAAACCMAgAAAACEUQAAAACAMKopgK3Dzvt9k6YAAACAMArABx8AAACuSQH44AMAAACuSQH44AMAAMA1KQAffAAAAMA1KQAffAAAALgmBeCDDwAAALgmBeCDDwAAANekAHzwAQAA4JpUUwA++AAAAIBrUgA++AAAAHBNCsAHHwAAAHBNCmDZnHC/z9YUAAAAEEYBAAAAAMIoAOD/b+9O4K2q6/3/H+AAh3kQBRUVldJLZmqa2kV/mJbdMMvMtPRKXvNa2U9T/+aAqcn1Z3XNoS5laYFDZVppg+HYuYqogIjmeHMsLU1NFFRUtP3fny2L+2W5pzOyz+H5ejxeD+Cctddea+21N9/3/nwHAAAACKMAAAAAAGEUAAAAAABhFAAAAAAgjAIAAAAAIIwCAAAAAIRRAAAAAIAw6lIAaw+zVvqfLgUAAACEUQDe+AAAANAmBeCNDwAAAGiTAvDGBwAAgDYpAG98AAAAQJsUgDc+AAAAtEkBeOMDAAAA2qQAvPEBAACgTQrAGx8AAADapC4F4I0PAAAAaJMC8MYHAACANikAb3wAAABAmxRAu5m20n1dCgAAAAijAAAAAABhFAAAAAAAYRQAAAAAIIwCAAAAACCMAgAAAACEUQAAAADAWs/0lYEzbxZGV1T4/TSXDgAAAADQXrZJgme9RkAd49IBPZdK30LV0rdQAAAA6EwWtjGMXuGSAT0b30IBAACgETiijW3SqS4Z0PPxLRQAAADWNCOLLq+zPfpE0WaXDOj5+BYKAAAAjcBP62yPnulSAb0D30IBAACgEdi9zjbpRJcK6D34FgoAAACNwGM12qOtLhHQu/AtFAAAABqBU2u0R63qAPRCfAsFAACANc34Ku3RZUVbXCKg9+FbKAAAADQCcyq0R7/n0gC9E99CAQAAoBHYv0KbdCeXBui9+BYKAAAAa5oogjyba4/e47IAvRvfQgEAAKAR+E6uPXqsSwL0bnwLBQAAgEZgm6Q9uqLoGJcE6P34FgoAAACNwMKV7dErXAp0C62trc2LFy+ecMcdd0xeuHDhvsU/p7H7POWUU76aBdE+ffq88eMf//hLrgtZ3UWLFu1fdKfi331rCzRau+K0y4e2nnDJxLknz5py0/TZB940/aJpJHuGH3jXjhdHm/SgnaeevbZfi5tPunjP1hNnbdl6WmuzT/ZOZsGCBdsUg+f0oguLjbkC16yTJk0qhdHdd9/d9SDb7mNFZxU/zj7W2tpqFmqg28Nna/PNJ83e/ebps79T/POJ4p8Fkj3T3x373cKGo8YWWk/8oevxvy4v2jr3pNnT44s2n/odqIAWG2uHFxttD2m8NpZf+cpXSmH03HPPdT3Ijrmk+Dl3zoIFC8b51Ae6OoT+ZEyxgXZO0WUaq2Tv8Xuf/arrUN25N0+/6GP+F2gDK7vfCqENamtra2GjjTYqzJ8/3/UgO8flRWeolAJdEUJntcw96aJTiw2yJRqlJNdWb5o+e+Et02dZAaMaMZ6qaKuGaeM7a9Ys14HsfB+68847t/e/AdA5RMNLV1yS/F/nTr/oTONKy1dDt1INJck7VhQ/Dw/1vwLQMWIyopVjpzRASXL1KultrafNMkQoqYhOLbpMI5QkV3m8/x2A9jF3+uwZGpwkWa1COvsBgbRIdEkTREmyrEeJFUAbg+hJFx2voUmSAmlNYgbJYmPrKQ1OkqzoVPECqI+bT5o9tdjAWqGRSZJt6bK7Fo4hjVkjrRtKkrWXf1m8ePEEMQOo0a44cdaWlm0hyXb5n2vdfxoxHkojkyRru3DhwjmiBlCjKjp9dqsGJUm2z7Vq2ZfFixePjG/7NTJJUnddoJO652pQkmQH1iFda/7TWLhw4TkaliTZJheLHECZ7rmntTbPnT77Ho1JkuyoF31sbeieO6bocg1LklQdBTrKTdMv2l8DkiQ7ZzKjtaEqeqgGJUm2a+zoJaIH8LYuuldqRJJk59h6wiUTe3tl9DcalSTZLpfHTOTiB5B10Z3VYgZdkuzEtUdPuujUXvufxn333TdUF12S7FB1dIoIAqyqipq4iCQ719beXBWdqjFJkh0Ko9NFEGBlGJ0++zsajiTZqS6PieGMFyVJlvMKEQQwXpQku2zc6ImztuyV/2ksWrToVA1JkrTEC9AZxMyPGo4kaYmXervpXqAhSZId8jERBFjVTfcxjUaS7OwlXi6a1lvDqJl0SVIYBTorjGo4kqQwWncYbdWQ7D1efPHFhTPPPLPkdddd55qQwiggjJKkMCqMdraXX375KjWG3/L4448v7L777iXbc11+85vfrHZd886ZM2etvK5XX3114dxzzy2cfvrppWscf377298uXHPNNe47CqNAA4XR28/8WeHuC6+p6l0/+F1pOw3cnuMtp15S8zW97YyfrnXXZd7XLi3cd+mNhceuv7Pw1MI/Fp5e9FDh8RsXl34Wv3PvCKPCaBeaha5QY7hzwuhhhx222nUt51577VU47rjjSsG1t1/PuIYHHXRQ1esR1+yXv/yl+08YBdAAYfR/fj63UC/Ln19WarjfOuMnGrsN7oKzfl7Xa/rSX/9eePTaO3r9axrh/M83/aHwxmsrKl6L+N0Tc+8VSoVRYVQY7V1hNPXEE08szJs3r1vO7fvf//6qLshz587t8ueLSmj+fPfee+/CfvvtV/oz/fkHP/jBUqXUPSiMAsJozwmjGa+++HJh8flXa/CW8ZHfzi8F9rAnhNGM15a9Urj34hu67diyaxQVye6o/kfoLvflSviPN/+x2s9ffuYFPQGEUWFUGO15YfSHP/xhadxpZuwvAuExxxxTCl/Zdoceemi3BNL02Lp6POzs2bNXC5qnnXba254zuuh+9atfXe0+/MlPfuI+FEYBYbRBwuiz9z5eCgqpi759VeGe2deVqkorlr+2atvXX361MP8bl2v05oxwk9EoYTS+PFjtNf2vX5de0+iqGsErI0LZw7++vcuPLboJZ0Q32a5+viUP/3W1AHr/T1pLldK0ahrXIw2sLz29ZLVtKIwKo8Jow4fRao+PLroHHHDAqm0joPamMJqeW62K58yZM1dtu//++xcWLFjgXhRGAWG0AcJorWAQ1aI0vPx1/oMavT0gjMYxVdpu7lcvKjw6Z+Gq6mD8GWGxt4TRP/zo2tWqv9UqntE9d9mTz63aPqrc7mlhVBgVRntFGA1bW1sLn/jEJ1Ztf+mll/aKMBr7TsfH1hMuP/OZz6x6zGWXXeZeFEYBYbQHhNF84z6qoxq9PTuMZkZFNOOV55aWQmpvCKNPzrtv1XPV03U6vb/jixf3tDAqjDZwGL3xxhsLZ511VuHLX/5yKfgcfvjhpe6ZbQ0XEdLy+4nunPXuJ8JPdPeM547Hxj6OPPLI0ljJmNW1UcJovjvrIYccUvO84hrEeX3xi1+s67xi3GY2TjTGambPFfuotYTN7bffXrjgggsK06dPLz1XGK9JvDbVwmycd73nlBmz62aPif1X2i7GukalNSrJ2THF8UWX6FqhN70WtSZdyrbLTzIV5539LpYByraP+ya7PtWuZYwRzo47HvO9732v9Lt6rlFsF9vH5Ffp+6uXzIYtjAI9NIyGaXfdal11Y1KcqC5F998XHn2q8Pwfnyx1973zu7+p+phsPGE2hjGqWVG9e+7+P63az59a7y4sPPsXb5uk5o+/nFf42+JHStuFUb1ty1jIeK4IZtkxRxfPv9z2QGkflQJadrxhem3Sn1ebICiuR0ycE88VzxnPHcfQkdlu2xpGw3jujAcu+++6rtMzdz+66lrH/RPXv9wEQNE1OLsWsV06gVL287gXq51PTLSUvS7ZaxvHWS04p89Vbf+pKdW66sa46bif436M44n7M84jurZX2396LWqNma02Bjkem95fcd1j+78/+ETpeKI7crl93nHulaXHpO+nuP/aMg48zjHeg9m5x+sSr08jjbUVRntxGI0QEGEiHQeZd9q0aTWXNYn9fPOb3yzsueeeFfcT4abaciAxK2vaRbScEV4qBZfuDqNhGhIrndtVV11V87wi6OTPK913JcsdZwStj3/84xUfE691vFaVlnFJK6P1hK1sTG1YKehGmIz9VTqm6OJb7Zqn16LasUTQzLaLMb6Vgna2RE3+OPL7i4p3tWsZv6tVFa/1esR9F1/iCKOAMLomwmha/YuQUG6bh666dbVglicCY7nQkoaoLNxUmgE1HeMYDen0uPJE0Ks2S2oEmhhD+eaKNyruIypl5YJ0PZS7ThEgIsxVIq5fvQGqM8JohJuMCBmVrlMEmWrXKSrmMQazrRNlRagp13U2lmDJTzKUf10iYJU73gisGREc67kOcS9lS+CUC6MRuCLwVSPu3Ur3W1vec9Uq7WnQjlCedqEvVwmO40mvRznivKp9CZK9HpWI+6I7xh0Lo2txGI3wE9WgfGCMhnpU7T7ykY+s+nn8vdpyJlHxKbef2H8aQqJRXi6wRNUwDcQRTuLxYVSR8sGtUcJoOolPjJ/M//7nP//5atcxf17pOefPK60gptcwrm328/xrEtW3/BcJ2fPF39PfnX322WXPKe1+HOfX0Xs1KoDp80a33jieOL/0ueJaZBXLrg6j6fNWei9F5Tt/T8Yxx70ef6/nuNMxtenrkX9/xTXprpmZhVFAGK1UGS1XCYkqSz5kxL4j4KQhJgJivqqVhqgY45dW0GI/S//8zGr7yAJpFljj2LLKWT6cRiO60jnlQ2E8TxxzVHwiXKXLf8QanfmKYmZ6bOnP89cpGvxpeIjjjueK54zJc1LaE0jbE0YjeGWhL86z1nWKbeM1jWOOLxfS6x2/SyttEU6za5FOFBSvcfbz6FKbP54XH//batc+u0ZxHOnrEvspV6WPkJY+vlbVsp7KeUwIlYavCHBxTHEOaWiOe6hcIO2KMJpei3JhNN5n6bWM48zel1EhTe/buC/LHXf8LP96xGNjH+lY20YZbyuM9tIwmjbcIyRGBS/frTICUrZNBIJyDeY0AFXaTxp6I4TluzCm4aBcqIsgkTbey3VtXRNhND33fHDLn1e5Lqz1nFe9Y0bj51llOvZZrmIXXWKz/cS25V7PfICKbsX517Q9M/OWO6asop5uU+78OjuMZs8Vr0lW9U+rk3EM2esSYTNe53LXKQur8WVBvroZXxRkv4995WcbjvdFzMacHU9UaoVRQBjtzjAaoSKdpTX/++gamAaEfCUxAkMawqKCWm1JknJVrwgEaaM4I8JMvpKVnl80wMsFlnS8ZBxzvrti7DOtKEXDv1L1qN4xo2llLQJWvvH/4OU3rwo2EVTb2v2xPWE0TINivht0GuzKvS4ReKJLc/plQ0fGjEaYyojXO3/N45qlM+WWm1Arjik9pwhQHVkrN73v4jXMvy5xzdLni9DcHWE0iEAY7884tzjv9ByjKpy+dvnXNv+eKvfFTVoRjXPPX8N47uxLobh3888hjAqjHQ6j0XDOgkv8WW08ZoSR7LnyY/YiTGRdEKPhXal6GtsddNBBZUNXBJR6ZqadMWNG1WC3JsJoBIzsMVExq/S7SuMRwzPOOGPVdpW6z9YTRqPSmW0T+6z0fOkXA5UqevlqZhivXxxftQp5/jVPQ2S1pV/SLrP569hVYbTaa5x+CVNtHGy1ezJ9zSp15Y1Amr1/IrD20OqoMAr0wDAa4SOtVsYYsXzDPya/yRqjMTauUlDKKjGxfaUQFSGs0pjUaOimRKCrp+qZHwsZgSar9MYxVxvPGtW/NPi2N4ymYSwCQLWxqJWudVeF0XTcaH5W3TRAV5pxN4J7WqUrF/rqDaNpBbJSGI/7o9qXI9m9kt2XaUUzXs8I/fWOzU27MUfgrDSeNI41fZ/kv9zoijAaQbTS8cT5Ze+3au+peC9kxx3bp1+QxHs5DbOVniu61dd6jwijwmi7w2gaXGp1xYyxkGn3xnz32noCVxjhoNySIRGMa405zIe7CJ6NEEbTgBOPzwf+es4rvYblzqstldHs+aqNQUxf+0pddbOqZqWxjtFNNYJfteeJoJtWV6tdxwhhWVfk+FIjQlpXhtEvfelLVScbyqqitcbN3nTTTWX3mb5nak0ElQbaSl8OCKOAMNrWMBpdLrOxcqkxeU9UvNKufOVCVFo1LVcRSo3ufRlphS0NUeXGEKamAaPaciRp5TPGhVZqPEc4qdVFM23UlwuR9YTRCM4ZMXtrpe0iRGTV0ejyuabDaASSamMpy63rWS7c1xtGs+fKd4tuzzWPUFxp7GnW3TjCZrXJkNLzqjUpVlT8K1UZuyKMVpsIKb3/a42bTb8AScf9phXvapNbxX2RVUfbct8Jo8JoXabjMGNcY63to0GdbZ9OZpRWtMp1ZcyHswgIYb3VtWoT0DR6GO2s8+rspV3SLwVqzU4bQSy6o6avf2pU1aMKW25SqXQ8ba17I//65UNZV0xgVG0irXq/YAljpt14rrTyGxM21VNZzYf2SpVxYRQQRtsaRuul0mRA6TIalWbyzIzZccs1btsSRtPgVGkipfw55id1SaumtWY2zVcHywWteoJRVomNP2t2m105fjRC8JoOo/WahqRy++jspV3aspxOVEkjWJUbY5lV/codc4Ss7IuICFu1lr6J8FupYtsVYbTaa5V++VHrNY3rE8cXpt1s0y9+qk0Elu/K3N7u0MKoMFpzkpp6ugamwSINCmmXz3pCbS2jIhYN+5g1N1vaJTPt5tsoYTStalbrYtyR82pPGI3gHyEyW7YkNZ3Zt1YYzVdeo6Kdn1AqjLGP+fso3a6eLx9i35UCXHeG0TSsV+vuXM14ndNAmy0pU870vq12XMIoIIx2ZhiNClK1wJYfv5cubZI3rYym1cruDqPpZEHVlqnJjOUsqk0sVCsYpd1Ko0tktWsUpvur5/i6K4xGlTRet3Splcy0i2pnhdGojsa1z5YjqTRpVL3nGWEyjiO+QEm7A2f3eX4Cnpj4KO0VUM9zpGOj0wDX3WE0HcPanqVXIoinXedr3bPp81Wa5VgYFUY79PiobLV1sqO0kd9ZFbuorEUAqbY0TGqjhNF0AqMIIJW6xVZb1qTWebXlOkcgjC8Oqi3Vk9qWMJoPpvnnyVcR05Bdz71RrWK7psJoe69Pei+2RWEUEEa7uptu2qiuFkbTRmhbSANid4fRtlTV8t0vy639WGt/UU1tL9XOsSsmMCo382zsN/3SoRYdDaNxvdpyX7XnPRDBNO7r9IuJCKTpsafHXKsLeq37s7vDaFvv8Wr3Ultpb3VdGBVGqz5+7733bogwmjbeI7jFBDJR2YvKYzYOMu362ChhNJ3oJ46vWoWsvedV73WOQJ9uF+M9IzDG65U9V5iOUWxv2Kq0JE86MVXatXdtDqPxOsTx12MPnVFXGAUaMIxWahinE7dEd71KXRTTRm9Um+Lf9ZhWoRo9jKbj79oTRtNQExW9eq9R2NWV0bQraoSx/LjQ2Odqy+0Uw1tcg+iSnX55EV9qdEYYjYl/0jVmoyIZ3bvjfkyfLz2mjrwX4r5OK/bp/deeam5vDKNtvWfzkzcJo8Joh8Jo2rgvN96vWqiKiW3StTA72k03DQmx3mKlSXEaccxout5kfvmTuB7Z76Jr7I033tilY0bTJVliMp1K3a+rha3Yd2Y990X+HkgnREq76VabrbncOMv82MmeHEbbcy8Ko4Aw2pWz6abjwCotal9vOKy34dvd3XTrmVU1XSIjJj9qa8O/LefXEdsTRtMJqMp1RU3HHpYL4p09ZjStyFebNKfSNY+usXEdwnpnzI1urClZII/upm193dLjWpPddNM1QNvTTTeuXTqL8Jr+zBJGTWBUNkTVmsAoDRbpsiQxkUt7jiUdj1ppCYxGDKPp7L4RNqudVxrguyqM1lulrha20tlz6610pwEw3V96/vXcGz11AqNax5HOHC2MAsJoI4TRNEDE5C/lJiZJlz6pNdtoo4TRNGCls4dWMq36lZvltVYYjXCTzegaFb1GCqPp5Ez5LxzSqmmt/XVGGE2XEonjak9gi2Vb6ln6p9r+svsqfd3qmXiq2gRG6Xqt3T2BUa2ZiWtNuhX3QLWZlIVRYbRLw2hUnrLHR7fN9i7tkgayahP4ZF06s+6IUcUrF6LiuXrC0i4xIVEakPLBJ78+a7UJfDpraZd6A1taQc2H0fR56v1yIZ1ROa1oprPEVltKJZu1N7qMZ0u7xJIp6e/TSZfyy750dhhNl3aJY6q2tEtUj6M6Htc+vf/T1zQmdxJGAWG00dYZTcNKuSUi2rJMSqOE0fSYY9KlWhWidEbVco3yerpEplXmaku7dGcYTYNbhOT8jKlteV3SGYrbG0bTKm2t+zKdgKjSpEPxBUo9ISq66qZdg9OKajpWttbrVm1pl7aMP610bm0Jo21Z2iXeK1kX2/TLmbT7cq2ZsoVRYbTLwmh0hc0mC4qGd7UQmM6Ymw8v0RjPqmkRIqp1xzzyyCNX7SeqT+V+XmkJkOhymlZn12QYje6206ZNW20dyXJdWtPuq5XOKx4XYaUzwmh0cS53ffOvexpa869nWjWN7aqtI5qF8rSaGiGs3L2R/13etMJerhoZYbZWlTlCY3oN2htGwxjbW20scLkJrNKZd7OQWk+wj22jG3wP7s4rjAI9MIxGtSqrDkUoywfAqAZlFZT8BDB5I+zE8+UnyenuMJo/5jjHSvuJUJERs7DWqmRVGlubBpXo9lhtqYyoZMVSJG2tRrUljEYQTdffjH9X674a16vS8cTxpvuqFUYrfWkR+8motsZqfjboahMy1Qpi+dcmxkdXCuzR9bXS6xuvZ3of5KuRsWRKWjWttJ80kHckjObXx63UVTeOI7te8RqmY5TTceNxbtWWbIkuzXFstZaAEUaF0Q53JYzKU756F437dKxoVEXLVaXSSlul/aRdNqOLcKUlPSK85INUjL1Mw9+aCKNx3nEcUQXMqmbZ+VYKbGlQKXde0T06f17HHXdc2X2lYeyHP/xhzXG9cVz5LxiiUpkG0UpfLqTXIbaPx5UL2/njj9lz89vFsaYTOKVrcWbPF+NMs20qfTGSjieNkJcffxuPyS8505EwGvvLvqyJL1nKVb4jFGf3QvyZvw/i99nzxT7ifZK/PvGY7LWNbdqz/q4wCgij7Qmj+QZwue3T9UOjwlRu9t1ojGfj2GKbtHHc3WE0f8xRFcxPuhKN9HRJl6iyVWrQp+PzKnVVThv92fjMcpMTxXFnVbq2dDOtJ4zGaxDhKr2G1UJ2fgxnHE8aSCKcxnVMq4qVQlIaxuLYyoWW+Fm6ZEsEyTQAR8Xyibn3rhZ8y61rGa9luk1UIsstN5Idf7ptBNP86xbBOCOqhfnni9cxrXxXet3SdTvzITmeJ7ry5q9le8NofqxznEO5L5LS6me+mpt/v8V9Xu46xvs9W8M1KsnCqDBaMYzWawSLfBBIq55hBJFoqMfPs26TWWO7UrUtXwVM9xM/T/cToSwfJCKspt0wszAV+0jXQ01DYLmuj50ZRusxtq9WOcxX6iqdV7rsS1RZa03uE6Elzj9MX5O4rvklZCIgxvPlX8tqy9HEOaVV6OwY4/mytUrzoTZe1zlz5tSccTg7pnitInin+4nzqlT1jC8D0msWQTE7nnQJmXRm346E0TCqmelxRwiOY47HpvdrPGd+jGu5LszZFzrxnoh9RHhOlzKq1c1dGAWE0c4Oo9GITUNCuUpiOkYtqzBFBSz2Hw31tMEfIW9NVkbLdS3NGuxxvPHztKtkBIRq4+7S0BrXKY4xzjkfcKMhn84CG9ckts2eMw0r8ZzlllnpzOU44ljza2tWm1U5e0xcpzANTunfK3XpzM+8HOeeHxsa65imRFUvtosglN1D8WcWfiotRxPHkA92cX2zdUrzx1+tYhtfQuTvhwhx8brFeOL0vRHhvVIFMa3AptcgzCr12fl1RhiNsJ2G5NhvHG/sI96v6fnHpF7lviCIc0+/kEjv2bhe+Xu2veNThVFhtGoYzQJpNJirrUsZ1a9as6HGfqKbYrX9ROO7UniLrqdpqMgb4y/jGNJAla8ydVcYjRBUKXyUC3ZtPa9yYxSjm3I+sJc7zwinaWjLG91PY5KodPbiSq9njP+sZ33U+OKi0kzBaZhOQ3DeCHrVuvFmFfI0VJe7v2Kt2s4Ko2Fcq7SrcXuOOyqi1a5jBNK41vXOXiyMAsJoZ4XRMKpn1QJjVHYiSKQN8zzR4C43G+2aCqP1HHM0xGPdy1oT16QN9mphIapotdbsrFSB6qwwGqEhxspGtbKe/cZrVukaxc9jfGIayKOLcbn9RNU4X9UsV8GNfeW3SyvUsZ+0ohevdaWuo+l21e7LWqE8Qlmt1y2+UKjVTTUqu9W+HIjAmgbIjoTRrNocr3U1IlRWO+6oSOe/bGrP+0QYXUvDaHSvbKvVxr5FGIyGfASLCGXRsI+utbUa2uXGU+b3E2G3WlU1DUDRrTMCU1aBi2NIl4yJLp3Z+eQDUATE7HftWfM0wkulaxe/i2CSn1inHuO8ouKXP6/02sZrU+m80upg/D6uaVZ5LneeEWaji3BU2tLXIOsCGr9Pz63WxEJx3lHdjO6k2fFHhTCOudpY47xx7aJLdnZcYVRm4zWvN4jFNYjnjXHG2bnFsWXXMs4xO698l9e4Vtnv6v0yIbsGUSVNX7/4e1uPO16TeM2yfcR1iOtRa1yuMAoIo/Ualc0IaGG5LrWVGqTZY8JKjddotEc4iYZ5VvWJBnQEmkoVo/h5tt9KwSINmdm21cawpedYq9EexxxhJBrccbwROiJQReipNLav3PWJEBWPjX1El8dqYTmqptGNMiqDsX1UrCLwd2Ryo/Q65o3ziy66ERjqPaf8NYrgHuEujjf+jH9nXZcj+NXzGkblLO6H7JxjH2Vfv29fVbqesU1sG69NBLXsNY/91HsPx+sQ5589b1aRjesdXWPbMjY3e92y44r9xDG0pYodr0E8d3avxLk9eu0dq65leo+Xq1Rnv2vLUkrZ65O9fnHccX3bctyxbbqP9rxPhNG1MIySpDAKCKMk2dsVRkmSwiggjJKkMCqMkqQwCgijJCmMCqMkKYwCwqhGI0kKo8IoSQqjgDBKksKoMEqSwiggjJIkhVFhlCSFUUAYJUlhVBglSWEUEEZJksIoSVIYBYRRkhRGhVGSFEYBYZQkhVFhlCQpjALCKEkKo8IoSQqjgDBKdsDF519duPvCawq3zviJ60FhVBglSWEUEEbZ01xw1s9Loe6Oc6/skv3P+9qlhceuv7Nw/09aq2638OxfFB7+9e2Fx29cXPKPv5xXmP+Nyytuv/z5ZYUgjj39eezjkd/OL8z96kVeXwqjwihJCqOAMMpG9fk/PlkKda88t7RL9v/otXeU9v+PN/9R9ve3n/mzwrP3Pl4oRzzmr/MfLAXaesJoVEsz7vrB77y+FEaFUZIURgFhlI1oVB4j8GXkq4ydYYTCV198ufDc/X8qG0RffuaF0nO//vKrhT+13l2qoD5w2X8Xnpx3X+GN11aUfvfCo0+9rdJZLozG/l56eknJ+PuauKZxrMH//Hyue0wYFUZJksIoIIyynNF9NoiwGDy96KFuff6/P/hE6XkjkJYLj9F1OAuk0f22nm66a1phlMIoSVIYBYRR1jC65gb3zL6uVCF9c8UbZbvEVhsPGmNOq43trFYxzbriVhuv+ueb/lDaLqqdnRVGY9KjOO62Vk/jPONxt5x6iTBKYZQkKYwCwijbY4S4rCoZ/45utMFDV91addKgMALZ3xY/sloX3wi2911649seE91u4zEvPv631X4eY0GDJQ//teasuRm3nfHTqmE0wmJ2jOUC8qL/+nXp+VLi/Msd9zN3P1razx9+dG1pMqWsehxEaP/LbQ+s6jqcPm/8Lut2HP+O/bjfhFFhlCQpjALCKFcaXXKD6Kob/45AFiz98zMVH5Px2rJXSqErqoARYiN4ZeRnzY0KYRDBLP35S3/9e+nnMcFRteOMwBfhN0zHjZYLo7FNRvw93U9Uf7OguOzJ50rnHwE5I1/JzCqcUZHN/oyJlrJ/B1G1zcaqxvbhiuWvrQq58e8Y++p+E0aFUZKkMAoIo1zZvTYbi5lVEKPraRYqK3WbTauJadiL/WXjP2MfaVffSmE0Am1HurO2JYxGRTULiY/OWVg2LMfv0zVLszAa1d8HL795tcfE0jNBXMP8xEq66VIYJUkKo4AwygpGt9NsltpyXWefmHtv1TAaVcZy4zCzwJeGt0phtFJFsivCaBYeYxmbcvvKKqRxXfKhMqt+5sN8pQqsMEphlCQpjALCKCsYXXHz4SudVCiqlvmKXxogK00alHX9jVDbSGE06xJc6bmysJoed61QWWk9U2GUwihJUhgFhFGWMbrgZpPwlJs5N5tht9ykPrXCaLkKZKUwmnUT7o4wmo0VjVCaje1MzdY6TSdTqjeM5q+FMEphlCQpjALCKKsslRJhLsJj3pjcJ4gxoG0No7EWaL77b6UwmoXearP3dlYYrZf0uIVRCqPCKEkKo4Awyk4yut5mEwfVIibuya/DWW9lNA2ylcJotpRM2jW2nHEM0f03rLW0S6Uwmi1BE0u71HuthFEKo8IoSQqjgDDKTvLei29YNeNthN/Aop0AADOISURBVKhKZtXR/MyztcJoFjDT5UwqhdGoiFYbn5oZkyFlM9e2e8zoyuVY8mNkhVEKo8IoSQqjgDDKbjDWycyHxXJmQTHGUpYLYOXGk8YSMdnYzHS23UphNJ19NyqqlSq52Uy3Ty38Y7vD6J9a7161Vmi54Bs/a2uoFEYpjJJrwBkzZhSOOeaYQmtr62o/v/jiiwtHHnlk4Sc/+clqP7/mmmsKX/7ylwtnnXWW60dhFBBGuYaMLq5Zd9XF519dc9ssWKbbZkQ1887v/ma1IJqFxgiwaeCrFEbTqmcQgTGdUCn2+bfFj6yqiuaXUGnrOqPZGqpRvU27H8ffszVS05Dd3jCaVYfz4ZnCqDBKdoK77757yW9+85ur/Xz//fcv/fyggw5a7ednnnnmqsfceOONriGFUUAY5RowutwGMXFQPduXC1VpGM2CZ3TpzUJuhMY0pNYKo+Ejv52/6vHxZ2yXjmuNEJlfPqWtYTRbtiarxMbzxHHH7LrZc8dMurecekmHw2gasOM8ohrr/hNGhVGyk/zSl75U+MxnPlO46qqrVvv52WefXdhvv/0KM2fOXO3nv/zlLwsHHHBAqWq6YMEC15DCKCCMcg34l9seKAWsesdN/uFH15a2TycjyohuuI9df2cpaEWYi5AXXYBj2Zj8fmLb2M8zdz9a8bliYqGogmYBM0JtBMWolqaTFqXG/mK/6aREUeXMlmvJT76UVVuji3K2lEs8T1R0I3Dmu+/GdrGftMtxvjtu/vnTGYsjRMe1SZeLoTAqjJKkMApAGGU7rDWBEUlhlCQpjALCKIVRUhgVRklSGAWEUQqjpDAqjJKkMApAGKUwSgqjwihJCqOAMMrG9+lFD5UsN1ERSWGUJCmMAsIoSQqjwihJCqOAMEqSwqgwSpLCKABhlCSFUWGUJIVRQBglSWFUGCVJYRQQRkmSwqgwSpLCKCCMkqQwKoySpDAKCKMkSWGUJCmMAsIoSQqjwihJCqOAMEqSwqgwSpIURgFhlCSFUWGUJIVRQBglSWFUGCVJYRQQRkmSwqgwSpLCKCCMkqQwKoySpDAKCKMkSWFUGCVJYRQQRklSGBVGSVIYBYRRkqQwSpIURgFhlCSFUWGUJIVRQBglSWFUGCVJCqOAMEqSwqgwSpLCKCCMkqQwKoySpDAKCKMkSWFUGCVJYRQQRklSGBVGSVIYBYRRkqQwSpIURgFhlCSFUWGUJIVRQBglSWFUGCVJCqOAMEqSwqgwSpLCKCCMkqQwKoySpDAKCKMkSWFUGCVJYRQQRklSGBVGSVIYBYRRkqQwKoySpDAKCKMkKYwKoyQpjALCKElSGCVJCqOAMEqSwqgwSpLCKCCMkqQwKoySJIVRQBglSWFUGCVJYRQQRklSGBVGSVIYBYRRkqQwKoySpDAKCKMkKYwKoyQpjALCKElSGCVJCqOAMEqSwqgwSpLCKCCMkqQwKoySJIVRQBglSWFUGCVJYRQQRsk15ymXFOZ993eFBdfcXbjj9kcLi+55urDovr+RpXth4S0PFW6/4tbCLV+/XBgVRklSGAWEUbJzvO2i1lLoWPznZWR1H19aWHD9vYVb/t/PhFFhlCSFUUAYJdvn3NMuKVW8hCy21Tsffr5w6/lzhFFhlCSFUUAYJdseRO+46y+CFTtUJb3tRzcIo8IoSQqjgDBK1ulXL1IRZef42AuFW879lTAqjJKkMAoIo2R9Y0QFKXaWUWGPLziEUQ1JkhRGAWGUrDpr7qIHnhGi2KnGFxzCqIYkSQqjgDBKVjQmnRGe2OnV0QWPC6MakiQpjALCKFnZBdfeIzyxSyYzmjvjJ8IoSVIYBYRRsrxRwRKe2BXOm3m1MEqSFEYBYZQs76L7/iY4sWvGjc7+vTBKkhRGAWGUFEbZeJMYCaMkSWEUEEYpjJLCqDBKksIoIIySwiiFUWGUJIVRQBgVWiiMksKoMEqSwiggjJLCKIVRYZQkhVFAGCWFUVIYFUZJUhgFhFFSGKUwKoySpDAKCKOkMEphVBglSQqjgDBKCqMURoVRkhRGAWGUFEYpjAqjJElhFBBGKYySwqgwSpLCKCCMksIohVFhlCSFUUAYJYVRdpbzH3q2cOo3Zxb2+MjHC9vvvEthtz33Khx54umFy+bME0aFUZIURgFhVGihMNqdXtm6qLD3fge+zQM+e3jh80efVDjr/EsLN9/7ZI8PovMeeLqwxbu2LhQ/Zt5m/FwYFUZJUhgFhFHBhcJoN3rBz35XNqClDhjYUjjiuFM65fluWPRw6Tm7uxp54KFHlM5lnXXHFqafeV7pGMJjTj6jZLnHxDHGNlffep8wKoySpDAKCKOkMNpVYTQLaJnRpfX9Uz646vedEUhPP/v80r6im2x3nmeE0HjeeP56HxPHGI+JCrEwKoySpDAKCKOkMNpFYbRWVTEqpNHdtSeG0ewcf33z3cKoMEqSFEYBYZTCaE8IozFmNNtm5iVXlt0mQl4EzTC2icmC8mNT47kO+eIxq8ZpZhXYbNt4nrQL7xXXzy/t7/s//U3ZMaDnXHjZqueMbSudX3qOX585e7XnyJ4zzD8mG2MaY2jj3xdf9XthVBglSWEUEEZJYbS7wmi4wfiNy3Zzbb3r8dLstPlxptEt9tuzf75quwh0lcakZmMys2OZuMWkwmFHfmXV7/NV1ONO+0Zh2PARb9tPbJevfFZ6zmyf5c6/0mPiGgijwihJCqOAMEoKo2ugMppWKaM6GcExC5AnzPhWaZzpnnt/svSzfs3NhR//9qbStlHFjO6usZxKFuzi32E2W292LPG4+HPs+huWtj/48KNWPWcWUmObTx50aCkcRzjNjiNC8DXzH1y1ffYc2fFHl+P4dxaqy51/9pgsgEdwjX/H8wijwihJCqOAMEoKo90URiP0xe+jGpl2v42QGD+ftPV2bxtLmnXH3XHybnWPGU2PJULjHY8uedvstllQTauuYWwbzxW/iwBbacxofmbcaudvzKgwSpLCKCCMksLoGphNN4JjFvDCM867cNXjIpQOHjKk9PMf/eK6stXULDhGV962hNGRo9d5WxAN9/n0tNLvo/JaadxqU4WJioRRYZQkKYwCwiiF0R62zmh0fT3r/EtXe1wE0KxaWmnfWdfZtGtvPWG00tjMjSZstmoSokrPmU06FN2FhVFhlCQpjALCKIXRHhBGY5Kh1FjKJX4e4z0rLdFSj+mkRx0Jo9n+ylViM7PxqvkAKYwKoyRJYRQQRimM9pAxo9lkQVGRzHebzUJlVEYjtFUzXQ6mM8JopWVc0ll7hVFhlCQpjALCKNlDw2iM+8yWUImZctPfRbfd+PmEzd/ZpufrSBiNsaRNVdY6Dd+93Q6lbfIz3wqjwihJUhgFhFEKoz1oNt0IdU0rJxXKlmDJTxaULqXSlWH0/VM+WPp9zNRb7vcxo2/WtTjflVcYFUZJksIoIIxSGO1BYTRmzY31PsuFwFjSJX4+9RMHlH1sTDSUr2JmYTQe29YwmlVjo1pbLgCn3Yo7Y2mXLPwKo8IoSQqjgDBKCqNrYJ3RLEBG1TENcxdf9ftVy7fs8ZGPF37825tKY0tjTGesQRq/iyCbrkGazcIb+4q1Qq9sXbSq4lorjIbZUjMROCPoxr6jSputaxrPWa4bb3vC6AGfPXxVcI5zqjZWVRgVRklSGAWEUVIY7eQwGgEzW6YlJghKfxcz7WbjSvNGEI2AWmlfTcn6pvWG0Qif6dqnqbHuaTpzb0fD6GVz5q0K27WOSxgVRklSGAWEUVIYbYMRzqIbaq2uqFEFzbaLrrv5iY5igqNYViXGWUZgjXU+89tl3rDo4VLlNNs2C4jZseQnHypnVFWjchnBNKqyRxx3Smm/lbbPjj0d91rP+UdYjW7I0WU3ugELo8IoSQqjgDBKCqOkMCqMkqQwCgijpDBKYVQYJUlhFBBGSWGUwqgwSpIURgFhlMKo4ERhVBglSWEUEEZJYZTCqDBKksKoCAIIoxRGSWFUGCVJYRQQRklhlMKoMEqSwiggjJLCKCmMCqMkKYwCwigpjFIYFUZJUhgFhFFSGKUwKoySJIVRQBglhVEKo8IoSQqjgDBKCqMURoVRkqQwCgijFEZJYbSjLFq06HoNSZIURgFhlBRGuQbC6I9uWKsro7M0JEmyQ94jggCrwuhTggt7o3fc/qjgxC5x3syr67kH9+2tYXSGhiRJtt/oYSKCAG9x0/TZiwUX9kbnX32n4MTO9/GlhbmnXVLz/rtl+sWTe2s33SM0JkmyQ84SQYBVldE5ggt7o/O++zvBiZ3uHbc9Utf913rCrAm98j+NhQsX7qshSZIdcoYIAqwKoxcILuyVfvWiwqJ7nhag2KneesG19YXR01qbe2s33TFFV2hMkmT7vPPOO3cXQYBV3XQPFFzYW43gIECxs1y08E/13ntze/V/HMXG1FwNSpJsl8taW3vpt5VAO2g9bdbIYsNpheDC3uqC6+8VpNhh73zkhcIt//mLuu65uSdddHxvD6NHaVCSZNtduHDhJeIH8LauutcLLezN3XXvWPC4QMUOBdFbz59T9z3XesIlE3v1fxqLFi2aqFFJku2aSXd/0QPIddU9+aLDhRb29kC64Np7BCu2PYj+z7OFW879Vd332tzps9eO5ePi230NS5Jskw/ooguU7arbYr1RrhUz7M68urDozieELNb2sRcKt1+1sDD3az9u0z0W4/DXiv84VlZHl2tckmTdXXQ/JnYAFaqj0y+aJqxwbfGWc64q3P6L2wsLbrivcMftj5IlF97yUGHBNXeXJr6qZy3RMkF08Vr1H0exYXWOBiZJ1uVccQOoVh1tbZ47ffYDggpJts+5J8+aslb9x7FymZfHNDJJsvoMunfeeef24gZQnWhImVmXJNvhybN/ulb+x7FgwYJtoqGlsUmSFSctOlDMAOrsrnvy7CM0LEmyTd1zF7aedvnQtfY/jhgHpcFJkmWdIV4AbaPYuLpAA5Mk6/Kp1tMuHb/W/8excu3RFRqeJLnKWWIF0HZi/OjNJ82+UiOTJKsH0Vumz9rJ/xr/G0in6rJLkqUv5o73vwLQMeZOnz1DY5Mky68n2nrCrAn+p3h7l92tio2whzRGSa6tkxXFF3P+NwA6h1gzr9jwWq7xSZIrPWn2lWv1GNFa3HfffUMXLVp0qiopybWsGjprwYIF4/wvAHRyt90TLpkYM0VqhJJcy32o6L7+V6iTaJQVQ+l3jCUl2cu9MnqF+NQHupZ5J83aptgQa9UgJbm2jQ2NmcZjPL3/CdpfKT2w6E9VS0n2hipo8fPs+mIAPfz22283gx2wBiqlN5180VErg6l1SUn2Rh8res7NJ83eXQjtzP9AWltbYvH3GFNVbMgdurI77wXRvY0kG9H4nIrgGctYFf++U3zB5tMcaJB2xWmzRt4y/eLJ0XUtKgcrJz2aRXamU7fZdXH4qR33nO96sAs8Z+5JFx1/0/SLps09edaU+MLNpzsAAACAoLDSx1wKAAAAAIAwCgAAAAAQRgEAAAAAEEYBAAAAAMIoAAAAAADCKAAAAABAGAUAAAAAQBgFAAAAAAijAAAAAABhFAAAAAAAYRQAAAAAIIwCAAAAACCMAgAAAACEUQAAAAAAhFEAAAAAgDAKAAAAABBGhVEAAAAAgDAKAAAAABBGAQAAAAAQRgEAAAAAwigAAAAAAMIoAAAAAEAYBQAAAABAGAUAAAAACKMAAAAAAGEUAAAAAABhFAAAAAAgjAIAAAAAIIwCAAAAAIRRAAAAAACEUQAAAACAMAoAAAAAEEaFUQAAAACAMAoAAAAAEEYBAAAAABBGAQAAAADCKAAAAAAAwigAAAAAQBgFAAAAAEAYBQAAAAAIowAAAAAAYRQAAAAAAGEUAAAAACCMAgAAAAAgjAIAAAAAhFEAAAAAAIRRAAAAAIAwCgAAAAAQRoVRAAAAAIAwCgAAAAAQRgEAAAAAEEYBAAAAAMIoAAAAAADCKAAAAABAGAUAAAAAQBgFAAAAAAijAAAAAABhFAAAAACATuKolYEzbxZGV1T4/b4uHQAAAACgvWyTBM96jYA6xqUDAAAAAHSExW0Mo1e6ZAAAAACAjnJ8G8Po/i4ZAAAAAKCjjG9DEF1WtMUlAwAAAAB0Bq11htFZLhUAAAAAoLM4tM4wurtLBQAAAADoLEYWXV4jiD5RtNmlAgAAAAB0JlfWCKPnuEQAAAAAgM7mYzXC6DYuEQAAAACgs4lZcpdUCKIPuDwAAAAAgK7iggphdLpLAwAAAADoKqZUCKMTOmn/Q5vempH32Ka3lom5vumtqmu+Ihv/fqzo3KJXFD216L5Ft1wD1yTOfc+i04oeFcfSt7n5Wy0tg35c/PuMlcd26srfRVfn6M480q0EAAAAAG3jiVwwnNvB/U2O0Nbcv/89ffv1e2X98Rs/uufe+/7x6On/8cdzf/izp6+47vY3br73ycLiPy9bZfz76nn3vfH9y65+6tT/nPnA3p86aNEW//TuP7QMGvx0nz59nlwZZA9seqtrcWcHz2kRNIcMG/ZY8XhfHz5i5LKt37vjc3vu/cll+/3r55Z9/uiTCsecfEbh9LPPLxxx3CmF+He4/8H//soOO+/6wvobbfLigAEDX+/ff8DLI0aNuqnprarylJVBHAAAAABQgTNzYfTwdoa6M4uB7O/rjdvg6U//2+f/evFVv18tcLbXX9101xtfPmnG4+/4p3f9sRgWl64MppM7cL7b9O8/8DsRdIsB9KVd9/iX56efeV7hsjnzCvMferbdx9l61+OFcy68rHDQ5770+jsnvXvJgIEty4cOH37dyhAtmAIAAADoNYxcGQLztjmcJUF0RdExbXjslJaWQb8f2DLopU9NO2zJla2LOiWAVgt8Rx5/2rPDR4x8trm5f1Rwp7bhWh0/aPCQP60zZr0XDzvq+Ne6+ljnPfB04YzzLizstMsHXigF02HDf9VkhmIAAAAAPYQYMxmVtTOHjxgxZ9jw4Q/3a25eHsExAs7I0essHbXOmGWp8buWwUNeHDFy1GPrrLvevKHDR57bVHv85eKVYfTKOo9rq+JzzCk+35KvnfW91ztSUWyPdzy6pBj0fvjSuA3GP1MMpa1Vzm1k3+bmrw0YMHDpnh/d98Uf/eK6bj3ONJj+f6d+/c2hw0a8MnzUqHlNb3XjBQAAAICGYWLRo0aMHPnfMQYxqngf2POjS4484WtvnnX+pYUf//amQn68ZTlvWPRwadvoNhrjHHfZ419eW2/cBi8PLAbYDTea8N/Dhw//YvF5xifPe/zKMLp/jeNricl8Bg8duuzYr575eoTCNRHu0lB6woxvvVwM5suKx3VG8fiak2M9PAuhv7757jV6nOnxxtjT0WPWfWnEiJER/Me45QEAAACsKSZEkIoJdEaMHPXS1H0//VKEyOiS2tlhKEJqhKGP7LP/P4YNH7EiJhfaZNPN/7/iMUwqGlXVahMEbTWwZdBj/zzlg0u64tg6el7bvm/nF1oGDVpYPM7JxT9vm7jFpBe7uitue41K8iFfOHpFy6DBL/dvaTnYWwAAAABAdzJ1yNChN8YkOp855AsvddaEP22p0kXo3eMjHy8MHjJkxbj1N7x/2JgxW1Q61gEDWp6fcfYPljdiuMv86Cc//Vrfvv3ePOrEGa+u6aptPV5x/fzCxptuvnz4yFEXN61e1QUAAACATudjLYOGPLjRJpu+EFXK7h5vWWlioFiuZMTIUW9O3HLSvTvt8oHtkuOdVgzNSy666sY3GjnYzbzkysKw4SMKa2pcaEfGk77//+zx6uh1xtzRZNZdAAAAAF3ANgMHDvrDhhtNeD4qko3afTTW1IxQuv1Ou14XXUhbBg1+rlG7u2bGmNCRo9fpcUE0rVJ/5t+++GYxkN7X1PlrqQIAAABYSylN+jNoyNClMfNsTwhHUSndc+99C/379/9Ho1dEI8i9e7sdCsed9o0eGURTPzh1nxXrjls/ZgfWZRcAAADoJcTMsbH8x5SiHxs8eNjnNtpk0zPGrr/hOZtMfOdJm79z0rH9W1r+rfi7aU1vzSg7ual9a3bmmdi//4AH37/rHn9vtEl/arntDjv3iIAXldztd96lxwfRLFgXr/vrG4zf+OvesgAAAEDPYsKAQYM+sdnELc/eeLOJt4xZd+xfBgxsWTFqzLqvbjRhs9ffs/1Or+66+4cLe+93YOHgw48qjZP85EGHlv6duefenyxMeve2r41eZ73XivuLcYhLx2240SObbv6Oa0aPGXN08WfbNNVXudq9X3PzkpPOOPuFnhaKvj3754WJW0wq9IRJgOJ1vPrW+3pFGA3jXIYMHRb33kRvZwAAAKBxGbfOOutM22Szza8fOWr0i+uMWe/13fbcqxRQYnKgWGszJojpaDiIsYgnzPhWKaxO2Pwdr0XAjYC68WbvmNX0VhU1z74x1vKCy377Wk8MRO+f8sHC9DPP6zUBr6cZFemx64+/x9sbAAAAaCzGb7jJhLNHr7vec7EkyZQPTf1HBKfunGQnAu73f/qbwmFHfiUqiK/H+qCbTdziyoFDhnyo6a2K6LIrrrv9jZ4ahiLMdzTEs2PddcesO3ZF8V7aytsdAAAAWLMMHTN27GEbbLTJ/UOHDX/9gM8e3lAzp8Zsrkccd0ph6+12eL25ufnND+21z4r4mWDF9hpdyCduMekyb30AAABgzTBu/fEbnzd4yJDlk3f/8JtnnX9pQ6zLWatbb1QWY6mR6DJ82Zx5whXbdR8NGDDgzXXGjF04aMiQbxTfC1ObrEMKAAAAdH0IXXe9cbNaBg1+LdZfvGHRwz0uTERojrF/66w7thRKr7h+vpDFNjlp620LXzj25FJ38PfuNHnZgAEDXx81esxdAwa0TG8ywREAAADQqbSss+56/9WTQ2i1UBoz995875OCFusyun5HlT29l2ZecmXhU//6udeHDhvxyshRo2OSo8OLjvTRAQAAALSfycOGj/zrbnvu9XpvCKF5I4RGGO0Ja3eyMbz4qt8X3r3dDhUnOYoleD6w50dfGtgy6KX+/QeeU3wPjfMxAgAAANTP0JGj15k1ap0xy6NxLYSQ//sFRlRH6xlf+qmDP/fSgIEty1eGUpVSAAAAoAZbDh4y9M/7HDDtVd1XyY7Zetfjhb33O2jpgAEtzze91X0XAAAAQBmmDBw0+IWvfev8NwQJsvOMybI2fccWfx8wYOA1xffZGB81AAAAwP8yLca5XfCz3wkPZBcYY0oP/vcjlzQ393+u+H6b7CMHAAAAaGo6cPiIkUuubF0kNJBd7Hd//KtXVnbb3ddHDwAAANZmJg8YMHCpIEp2n5fNueWNlkGDnxNIAQAAsLayZb/m5iU/vGLOKwIC2c3jSK+7/Y3+/Qf8vfg+3MlHEQAAANYmmvs2N//x9LO+94JgQK4Zvz3r8uf79Wt+qsnSLwAAAFiLOP4dW056VCAg16x77XvAn4rvx1k+kgAAALA2ML5vv37P/+qmuyzhQq5h5z3wdGHI0KHPNumuCwAAgLWASz5+wMH3CwJkY/jl6f/xTJ8+fX7uowkAAAC9maF9+/Z98eZ7nxQCyAaqjsas1sX353gfUQAAAOitHLrZO7f8gwBANpY7Tp7yRPH9Oc1HFAAAAHor18845we66JIN5olnnP1q3379vu8jCgAAAL2VwvyHntX4JxvMC372u8Kw4cMX+ogCAABAb2RCS8ugpzT8ycbzx7+9qTBi1OgHfEwBAACgN7L72HEb6KJLNqAXX/X7wpj1xj7sYwoAAAC9kWlbb/e+OzT8ycbznAsvK2w8YeIiH1MAAADolWF0mx12XqzhTzaeR554emHiFlv9zMcUAAAAeiNT1t9wo//R8Ccbz+133qWw6RZb7OdjCgAAAL2RLYcMHfqEhj/ZWN6w6OHCkKHD3iy+R4f6mAIAAEBvZGS/fs0v3fHoEgGAbLAuujvt8oE7fUQBAACgVwTPgYMH7/2Of9rqu1u+693XbbLpOx5Yb9wGzw0c2PLGWedfKgCQDeK8B54urLPu2MKnPnv4R31sAQAAoCfSMmDQoE+M33jTa0avu95zg4cMWfG+9/+fNw/54jGF6WeeV5h5yZWFK66fXzjr+z8uTNj8nQXVUbIxPOzIrxT+ecoHH/URBgAAgJ7G1PXW32DOwJZBr26/8y6vR/CM0Fmt8bvj5N0KJ8z4liBArmGvbF1UGDBwYGHX3f/lQB9lAAAA6Ak0F91/+IiRj266+TtfOfWbMwutdz1edwP4sjnzCsecfIYwQK5Bo3fCpK23K+xzwMFvtgwa/FzxPb2ljzYAAAA0MlOKDdcnt9pm+2Xfnv1zjXqyhxpd6Hfd/cOlv//n+Ze80dzc/6Xi+3uyjzgAAAA0GkP79e//3WHDRyz99qwr3tCYJ3uuX585u7DB+I1X69EQgXTAgIFLi+/1CT7uAAAA0ChMLDZSH/novp9ZcvO9T2rMkz3YH/3iutLsudFdPv+76f/v3DeHDB36x+J7vsXHHgAAANY0WzU393/62FPOfFFDnuzZXvCz35WCaATSStt84MMffXnwkGGzfPQBAABgTbJlv+bmZd/47kXLNeTJnm3MdD1y9DpVg2i27uh64zZ4ufj+/5iPQAAAAKwJhvZtbr7/5K+f93cN+frce78DK3rEcacULr7q973iPI877Rulczrr/EtrbnvkiadXvCb7fHpaaV/XzH+w7GPPufCy0naxD/dX+43ru8dHPl7Y4l1bF3598911V1CHDh32dNNbM2cDAAAA3coFu+zx4T9rzNdv8ZrV9P1TPli4YdHDa+T4Zl5yZeH0s8+vO5CUM8YMDxjYUjqXiVtMqrn99jvvUvOa9GtuLhx25Ffe9tjPH31S6fexD/dX+z348KNK13L+Q8+26XHvee/7Xhk8eNjnfBQCAACgO5k4YEDL89FdT2O+7WE0Ziq9+tb7Skbw+/5Pf1MKW4OHDCn9/t3b7bBGji8LhhFIO9LVMw2Staq92XMeeOgRq65JeGXrokIsDRSVz2xf+UAqjK5ZY4KjlsFDXmwymREAAAC6kVnTPv/lJzXI2xdGo4tjpa6P2TYRUHtiGI0g3bSywht/fvKgQ+t6zgiW1bryNq2skKZVY2F0zfvenSa/2mTsKAAAALqJkc3N/V+whEvnh9Fw0tbbla0CZl5x/fzSOMoIYvFnrS61UWU8Yca3StvHuNQIuXc8umTV76NrZhxPGGMG47kP+eIxpX+XW9qjmnFs8fix629YGocY4XHY8BFVu3/WE0bjeGM/TSurysJo43jqN2cW1t9go2t9LAIAAKA7mDJ+482MFe2iMBoTycQ20T01P4NpTOjTVGZMZYTHcgHugM8eXnb7CZu/s9QNNgurTRXGarY15MXYw/R4dpy8W+nfZ5x3YYfCaLjtDjuXtotALYw2jq13PR5jhJc36aoLAACAbuCoj3x8/0c1xLsmjEZQjG3yM8Rm3V43GL9xqRoV+4htsnGmaUgLo7IaP4+lOo45+YzS9hEKs+pnrCUZ1e0IudEtN8yeO0Jv/DsmNKr33CL8xnPF46NCGj+L56sVFusNo3G8TbkuxMJoY/ie7XdaVnwdpvpoBAAAQFfzveNO/cZzGuGdH0YjNDatHBuZBbowAljTyu6v+Zl2Y03I+F3MYJt2nc6CYUwClK+wZsEuJhvqrDGjscxKPDbCbvpcWViOCmx7w2i27zDtliyMNoaf+bcvvhlfUvloBAAAQFdz6iFfPGaJRnj7w2h0Y82qkWGM6dx19w9XnDU266Ia21XrwpqOp4xAGz+LsJrfPtb/jCCXD8UdCaPZ8UegTn8+9RMHVB0DW2k23fDHv72p9LhsqZg99/6k2XQbdF3ZEaNG/8BHIwAAALqa6Z/5ty88rxHe+euMRsUyuuCmj4nJf7JgGZMP5QNbmI0zTauLWTjcaMJmpe6y9Uw41d4wGtXaOMYwJi5KfxfH3LSyqtvedUbDOMf8UkLCaGMY1feRo0bf7KMRAAAAXc3Uf9p622c0wtsfRmNyoghSmdk4zhirWW423HrCWlNu0qMIiPmgF88TlcZKM/C2N4xm3YtjwqJyY0kjiMbvy41BzZ4zxsLG31OjqhrXJyqk5Z5XGG0Mo8I+YuSoO300AgAAoKtpaW7u/6qlXTpvzGi2vmh+rGg+jEbYrGa+qprtO9b6nLjFpFX7iecp1222vWE0m/goll+JUJm3UjfbtkxgJIw2rvElw5ChQ2/00QgAAIAup9jwvLZc8GH7JzDabc+9Sr+LWXPzS2dkj8tPXtSeZThi1t2s22+MHe1oGL34qt+vCrjlgmhm08pJluIYhNHeZdwv/fr3v9gnIwAAALqDKWPWHbs0xjNqjHdOGL1szrxVITH/+6yba71fAMS+IqhVCpXZeqX5bsHtCaPZvvLroubNuiLnJ2ESRnvFBEavFF+H7/hYBAAAQLcwdNiw3x89/Yw3NcY7b2mXCHRNueVR0tAVFcZy1dGYMTdm6I3xmemkQbGsSr4SmT7PAZ89vGwwzC/5Usn4MiJbuiWes55xpflzE0Z7vju8f9c/FV+HA30qAgAAoLuY2DJo8Mv5MY5sfxiN8aHZ+Mq0OhmzyGbjMiOQxuy4MQlRVECzpU/S8aYRSrNKZIwVje642fYRWist+5KF1Elbb1caB1grYKbrn2ZBuJIxy272vHEca2MYPfLE00tL2KTn3xvs33/Ay8XXYZyPRAAAAHQnB647dv2XylXf2PYwGkZYyQJe2g06KqLv3m6HsrPojhy9zttmqq22fYTXctXPGP+ZBcYs+NazFEwccz3nH7PtNuUqsmtTGI0vG+KY47rGlwWxPmdPnwjsoqtufKNvc/P9PgoBAADQ7QwaMuQbW7zrPS/m14Bk+UpiWG0ioggn2Xb5NTuzLrhRDY0qZoS62K7atU+3j1l1Y8xmteePZVQiXMb2tbrrVjvOckblNrY/58LLVpuJNX7WnmphPCYeW27JmJ6wHErMLhxfJEQX5p46/nqPj3z8vuLHwHSfhAAAAFgjDGxpOX/9jTZ5saOzvZJrm9F9OkLpOuuOLVVKa3V3biSvv+OhFX379Xum+BEw0qcgAAAA1hh9+/c/etjwEUujq6eQQba9yhvL+sR43StbF/WkquipPv0AAADQCExtbu7/3L6fOeTvuu2SbTeW74muu1ElbeTjvPya25aqigIAAKDRGFlspF40bPiI578+c/bSntTtkGyUiY5iUqaolDbilzpxTEOHj4jlXPb3cQcAAIBGZEqffv1uKobSZ748/T+e6akTtJBrwvgSJyac2naHnQuNNhZ7h513ie653/MRBwAAgEZnp6iSjt9ks8I+n55Wmt1VMCXrM2ZCjjVmGyWQHv7lEx/p06fPXcX3dYuPNgAAADQsrY8VWj641z4PTNxiUuH8n/ymtIRFVHoGDxlSWnPy4MOPKnx95uzSciJm4iXLG+NH4z20prvsRhDt27fv/xTf2uN8ugEAAKBhOW3m5UN32vUDz0b4zDei49+xNuQRx51SWtZii3dtXVraoviwwrDhIwobjN94NWMtSaGEa7PRZXfX3T+8xp7/kC8cfZcgCgAAgIantVBoLobQv+zxkY+3ed3Em+99sjSBS6qZeWkM6ZLSpEbRbbc7nze61E/50F739+nT50FBFAAAAA3PHlM/PjcazmbSJTvP6Moey75ccf38bnm+X920+OVRo9eJWXN/WnSoTzYAAAA0NNvvPOWI8Zts+o/Wux4XIMhO9oQZ3yot+dL1z3P2E3379Xu++JY+3KcaAAAAegIt643b4OULfvY7wYHsou66G03YrDQrdVfsf/Yvr182dv0NH+/Tp88dxffzNj7SAAAA0CN4x5ZbnRcTEgkNZNd5xnkXdvpkRtfMf3DF9jvv+lDfvn3/VnwrT/NpBgAAgB7FyFGj/37ZnHkCA9mFxoReMet0Z0zsddGVN7y2/U67PNq3X7+lxbfwqU3WDwUAAEAPZJv1x2/8mrBAdr277blXqULa3jB7xrkXLt1go02eLIbQR4vv3aPiuyQfYQAAAOipHLX/wf/+iqBAdr3TzzyvsM+np7UpgM44+wfLt37v+/7cr7l5eZ9+/a4tvmc/5mMLAAAAPZ6+zc3fOubkMwQFshuMCYx2nLxb1fV6Z15yZeGQLx6zZPMtJj0VAbTor4tv1QObVEEBAADQy5h1+tnnCwpkNxhrjU7cYlIhllC6+KrfF74+c3bh88ectHzKh6Y+t964DZ6L8DlwYMtNxffljKJTm6wTCgAAgF7Mf37h2JOfFRTIrvd3t91f6D9gwGsDBgxcOmTosPsHDRr8y5XBM2bCtSQLAAAA1iqO2nPvfR8TFMjuqYz26dPnXh87AAAAQFPTNkOHDXtaUCC73m/Puvz54ntujo8dAAAAoEhUan54xRwz6pJd7JeOOyWWZPmeTx0AAADgLY7Y7B1bPiQskF3rJptNfLj4ftvXRw4AAADwFs19+vS562tnffcvAgPZNcaaoX379n2xyQy5AAAAwGps39zc/7lf3LjwZcGB7HyPPeXMx4rvsyt91AAAAABvZ/8BA1qev3refW8ID2TnOf+hZwstgwY/XXyPTfYxAwAAAJTnqKHDhj15xXW3C6RkJ/nvXz7hoSZVUQAAAKAm06LL7slfP+/vggTZMefc/sBL/Zqbny2+r7by0QIAAADUZqtiIH1g5113/+vVt94nVJDt8I5HlxRGjVk3lnM51kcKAAAAUD8x6+ep/fsPePFT0w5bcvO9TwoYZBvcbc+97mrSPRcAAABoN+P69uv3/QEDBr7yoY9+4oWLr/q9oEHW8MN7f/K+Pn36PFh8/4z0EQIAAAB0jDFFjx08ZOifx66/4dJDvnD0igt+9rvSTKHCB/m//p8PfuTO4nvlnvgix8cGAAAA0LlMHjCgZcaIUaMfGNgy6NX3bL/TsgMPPaIw/czzClE5vWHRw3WNp4vxqBFoTz/7/MLBhx9V2HHybqW/CzQMo2v4qd+c2WOOd94DT6/Y9n3vX1h8f8xtequbOwAAAIAuJBrdUwcMGHT82A02/M3oddd7bPDQocuKPysMGNiyYsx645bnHTlq9Jv9+vUrbDB+48K2O+xcmPqJAwpHnnh6YeYlVxaMTWVm3A/xBUVPONafzpn3l0GDBz9SvO9nCaIAAABAYwTVCXk32mSzL45Zd+yKK1sXCV2s6J57f7JwwoxvNfyMuZ/9wtG39e3b92/Fe3uatzwAAADQ4Gw6cYtDBVJW8tc3310YOXqdhq6Uf2PmRXcPbBn0WPF2vr7oRO9qAAAAoAcF0mHDR6z49uyfC2BczU8edGjh80ef1JDHds4FP71/zHpjFxdv4QeK7umdDAAAAPRARq+3wftHjBz1UqMGD66ZquiQocPe+NDUfZbGBFeNMZnSE68e/O9HzVtZCY2ZcqNLbrN3MAAAANCzGbfhxhMefu9Ok/8RM+wKZGu3Uz409R/jN9n0wuJ9cXzLoCEPDh8xctl+//q5ZTGh0bwHnu6247j+jode+tJXTrlzwmbvXNCnT58Xisfz06KTvV0BAACA3kXzP221zTej2+4xJ59Rmhimt4SrOJ/Wux4XNOvw+z/9TWH0mHUj+LUk90aMxzx12PDhC5ub+786YeI7n/vXw/7vS2edf2nhiuvnd8q9Evu4/NrbXz5+xlkPxjqhsWxREkAPbHprnV0AAAAAvZUR6623+cYTNnvsnZPe/Y/eMpY01lCNmWGFzdqBcONNN39jw403/lSVWyRC6pQIp4OHDL2m6J/79u375jpjxv59ux0nP7Xbnh99+uB/P3LJ548+6flYszb1q9/4r6Unn3nes0ee8LW/7D/tsId2nLzb/2z2ji0fGjV6zCPF4Plq01vdb68oeuzK59ANFwAAAFjb2PZ9//z5DcZv/ML2O+9SaJRxg+11/kPPFiZuMakUiITOyu5zwMFvbrjxhHntuF0iNG5V9GNNb43lnF70zKa31vws5/cizK7cdmrR7ZusDQoAAAAgDRk77rLb6WPX3/CVbXfYuRDdMntq991YwiaWKvnRL64TPCt0ZR6z7ti/CIUAAAAAGiqU7rL7v3xl83du+UwxmBaOPPH0wjXzH+xxgSsm4Injt7bq6kZ37JhRufg6j3erAwAAAGhIPvyxfT+y0y4fuLMYXt6Maulxp32jcMOih3vEeMgIXe/d8Z8jeL120VU3viGIvhVEhw0fsXzQ8OE7ursBAAAA9ASa9zv4sGO233nXhwYNHvyPd2+3Q+GwI79SGl8aYzQbIWjFMiTnXHhZYZ9PT4vAtWLchhs9suFGm8R4xn2bm/u/cPrZ3395bQ6i0888L67L0kHDhv2z2xkAAABAj+Ozp53Wsv/Bh/3fPaZ+fO4Wk979UjHgFHacvFtpFtsYZ/rrm+/ulnAVFdqo9EUoftd73rti4MCWFeM33vSejTbZ9Iymt3dB3bK5ecCT0z7/5WfXxiD6uf973JvDR4x6qumtZVsAAAAAoOdz6BHHbvKpgz932p5773v9du97/1/HrDfujQiok7berrTESoTFmNk2qqiXzZlXuPrW++ruahvbXnzV70shN7oIH3joEYWdd93jzah8Dh4yZPlGEza/b5PNJ/6g6a2lQVpqHOq45ub+t227w87P9MQxsO0xznPnXXdfPmr0OvfG+btbAQAAAPRqDj7imHfuP+3wQ/b5zGfP/dBe+1wb3Xu3mLT1sxtvNnHZeuM2eK24SSHcYPzGqzl2/Q1XtAwa/Gb8rm+/fv8YPWbdl9Yfv/FTm79jy0Xv2HKrX262+RbfGDh48N4dCFaxLMn0AQMGLj321K8v66mzBddjfAEQgX3w0KFnNFnDEwAAAABWI7rTTsjZHcuNbNnc3H/uJptu/rfeNttuVEN3nDxl2ZChQ/9YPM9t3GIAAAAA0Hgc3r//gL9vt+Pkp6ILcU8OoTGGdt8DD1kycNDgF/o2N3+1STUUAAAAABqaGGt6VHNz/+e23WHnv1w255Y3emIILYbql4sh9LziuYzxkgIAAABAjwulA54cv/Gmfz3mq/9vSetdjzfsOqrn/ejy19670+QniiH6pZUh1ARFAAAAANCDie6texa9pF9z87Ktt33f42ece+HSWMd0TYfQ6Er8sf0Oejy64jY3N99aPMZDm7pnjC0AAAAAoBuJoHdgnz59bujbr98r4zYY/6d9Dpj2yHdm/3xZd4TTmFzp6On/8ef3vHfHBwcMaHm+b9++jxSPZ0aT9UIBAAAAYK0huvFOKXpq0dZiMHx5zHrj/rTdjv/8wEGHfen+08/5/p8u+9281+Y/9Gy7xn1+98e/euaI4065/4NT97lr8y3+6Z5Bgwf/rfgcfyo+16yi05remmkYAAAAACCcNu20MiieWfSKovf06dPn1ejeO7Bl0FMtgwY/OXb9DR8IJ275roXZ30eNXufB+H0Yobb4mKeLj51b9IKixxb9mPAJAAAAAGgrI1eGyehOO2Wl+yd/36mpe9dVBQAAAAAAAAAAAAAAAAAAAAAAAAAAAAAAAAAAAAAAAAAAAAAAAAAAAAAAAAAAAAAAAAAAAAAAAAAAAAAAAAAAAAAAAAAAAAAAAAAAAAAAAAAAAAAAAAAAAAAAAAAAAAAAAACggfj/AY4FnrZw+JosAAAAAElFTkSuQmCC;" vertex="1" parent="1">
          <mxGeometry x="20" y="10" width="780" height="845" as="geometry" />
        </mxCell>
        <mxCell id="czvogAlFN6EcyVGkG60g-4" value="&lt;font color=&quot;#ff0000&quot; style=&quot;font-size: 18px&quot;&gt;GraphClient4Gapi&lt;/font&gt;" style="rounded=1;whiteSpace=wrap;html=1;" vertex="1" parent="1">
          <mxGeometry x="450" y="612" width="180" height="50" as="geometry" />
        </mxCell>
        <mxCell id="czvogAlFN6EcyVGkG60g-5" value="&lt;font style=&quot;font-size: 24px&quot; color=&quot;#ff0000&quot;&gt;Graphql API&lt;/font&gt;" style="text;html=1;strokeColor=none;fillColor=none;align=center;verticalAlign=middle;whiteSpace=wrap;rounded=0;" vertex="1" parent="1">
          <mxGeometry x="535" y="798" width="135" height="20" as="geometry" />
        </mxCell>
      </root>
    </mxGraphModel>
  </diagram>
</mxfile>
